<?xml version="1.0" standalone="no"?>
<!DOCTYPE svg PUBLIC "-//W3C//DTD SVG 1.1//EN" "http://www.w3.org/Graphics/SVG/1.1/DTD/svg11.dtd" >
<svg xmlns="http://www.w3.org/2000/svg" xmlns:xlink="http://www.w3.org/1999/xlink" version="1.1">
<metadata>
Created by FontForge 20200427 at Wed Aug 10 22:11:40 2011
 By www
Copyright (c) 2009 by Suomi Type Foundry, Suomi Finland. All rights reserved.
</metadata>
<defs>
<font id="TameW01-Alternate" horiz-adv-x="610" >
  <font-face 
    font-family="TameW01-Alternate"
    font-weight="400"
    font-stretch="normal"
    units-per-em="1000"
    panose-1="2 0 6 5 3 0 0 2 0 4"
    ascent="735"
    descent="-265"
    x-height="460"
    cap-height="710"
    bbox="-50 -240 1055 950"
    underline-thickness="20"
    underline-position="-160"
    unicode-range="U+000D-2122"
  />
<missing-glyph horiz-adv-x="0" 
 />
    <glyph glyph-name=".notdef" horiz-adv-x="0" 
 />
    <glyph glyph-name=".null" horiz-adv-x="0" 
 />
    <glyph glyph-name="uni000D" unicode="&#xd;" horiz-adv-x="0" 
 />
    <glyph glyph-name="space" unicode=" " horiz-adv-x="240" 
 />
    <glyph glyph-name="exclam" unicode="!" horiz-adv-x="225" 
d="M112 190q-22 0 -37 15.5t-15 37.5v414q0 22 15 37.5t37 15.5t37.5 -15.5t15.5 -37.5v-414q0 -22 -15.5 -37.5t-37.5 -15.5zM113 -10q-26 0 -43 17t-17 43t17 43t43 17t43 -17t17 -43t-17 -43t-43 -17z" />
    <glyph glyph-name="quotedbl" unicode="&#x22;" horiz-adv-x="340" 
d="M242 485q-20 0 -33.5 14t-13.5 34v130q0 20 13.5 33.5t33.5 13.5t34 -13.5t14 -33.5v-130q0 -20 -14 -34t-34 -14zM97 485q-20 0 -33.5 14t-13.5 34v130q0 20 13.5 33.5t33.5 13.5t34 -13.5t14 -33.5v-130q0 -20 -14 -34t-34 -14z" />
    <glyph glyph-name="numbersign" unicode="#" horiz-adv-x="760" 
d="M595 140q-26 0 -48.5 10t-39.5 27t-27 39.5t-10 48.5t10 48.5t27 39.5t39.5 27t48.5 10t48.5 -10t39.5 -27t27 -39.5t10 -48.5t-10 -48.5t-27 -39.5t-39.5 -27t-48.5 -10zM100 -10q-21 0 -35.5 14.5t-14.5 35.5v235q0 21 3 43t11 41q20 49 65.5 80t105.5 31t105.5 -31
t65.5 -80q8 -19 11 -41t3 -43v-235q0 -21 -14.5 -35.5t-35.5 -14.5t-35.5 14.5t-14.5 35.5v250q0 39 -23.5 62t-61.5 23t-61.5 -23t-23.5 -62v-250q0 -21 -14.5 -35.5t-35.5 -14.5zM520 0q-22 0 -36 14t-14 36t14 36.5t36 14.5h149q22 0 36.5 -14.5t14.5 -36.5t-14.5 -36
t-36.5 -14h-149zM595 214q21 0 36 15t15 36t-15 36t-36 15t-36 -15t-15 -36t15 -36t36 -15z" />
    <glyph glyph-name="dollar" unicode="$" horiz-adv-x="365" 
d="M185 -128q-20 0 -33.5 14t-13.5 34v73q-30 5 -50 15.5t-34 22.5q-17 14 -17 39q0 18 13.5 32t33.5 14q11 0 18 -2.5t17 -10.5t21.5 -13t32.5 -5q28 0 44 12.5t16 32.5q0 13 -9 24.5t-29 16.5q-31 9 -60 21t-51.5 31t-36 46t-13.5 65q0 48 28 82.5t76 46.5v77
q0 20 13.5 33.5t33.5 13.5t34 -13.5t14 -33.5v-76q23 -5 39.5 -14.5t25.5 -18.5q8 -8 12.5 -18t4.5 -21q0 -18 -13.5 -32t-33.5 -14q-11 0 -18 2.5t-17 10.5q-19 16 -45 16q-29 0 -43.5 -11t-14.5 -30q0 -17 8.5 -28t30.5 -17q36 -11 66 -23.5t51.5 -31t34 -44.5t12.5 -64
q0 -45 -27 -79t-73 -48v-79q0 -20 -14 -34t-34 -14z" />
    <glyph glyph-name="percent" unicode="%" horiz-adv-x="750" 
d="M308 -10q-20 0 -35 12.5t-15 35.5q0 11 3 19l126 343h-125v-10q6 -2 14 -8t15.5 -17t12.5 -26t5 -35v-12q0 -17 -2 -34.5t-9 -32.5q-17 -39 -53 -64t-84 -25t-84 25t-53 64q-7 15 -9 32.5t-2 34.5v12q0 17 2 34.5t9 32.5q17 39 53 64t84 25h283q20 0 35 -12.5t15 -35.5
q0 -12 -3 -19l-136 -370q-6 -16 -19 -24.5t-28 -8.5zM591 -10q-48 0 -84 25t-53 64q-7 15 -9 32.5t-2 34.5v12q0 17 2 34.5t9 32.5q17 39 53 64t84 25t84 -25t53 -64q7 -15 9 -32.5t2 -34.5v-12q0 -17 -2 -34.5t-9 -32.5q-17 -39 -53 -64t-84 -25zM161 224q27 0 44 16t17 45
v26q0 29 -17 45t-44 16t-44 -16t-17 -45v-26q0 -29 17 -45t44 -16zM591 78q27 0 44 16t17 45v26q0 29 -17 45t-44 16t-44 -16t-17 -45v-26q0 -29 17 -45t44 -16z" />
    <glyph glyph-name="ampersand" unicode="&#x26;" horiz-adv-x="650" 
d="M258 -10q-56 0 -100.5 16t-75 44.5t-46.5 67.5t-16 86q0 32 9 59t24 49t34 38t39 27q-17 42 -27.5 79t-10.5 68q0 42 14.5 76t40.5 58.5t60.5 38t75.5 13.5q58 0 97.5 -16.5t62.5 -42.5q8 -9 14 -19.5t6 -22.5q0 -22 -15 -36t-37 -14q-20 0 -33 11q-15 13 -35.5 26.5
t-59.5 13.5t-62.5 -26t-23.5 -65q0 -38 17.5 -85.5t45.5 -98.5t63.5 -102t71.5 -96q30 33 30 77q0 40 -21 66.5t-63 26.5q-17 0 -29.5 11t-12.5 34q0 26 21.5 39t44.5 13q17 0 37 -1.5t39 -3t35.5 -3t27.5 -1.5q26 0 39 7t24 16q14 11 33 11q22 0 37 -14t15 -36
q0 -40 -28.5 -60t-76.5 -20q-23 0 -38 4t-26 9v-10q18 -14 31.5 -42.5t13.5 -66.5q0 -31 -12 -57t-29 -43v-10q11 2 21.5 8t18.5 12q10 8 17 10.5t18 2.5q20 0 33.5 -14t13.5 -32q0 -11 -4.5 -21.5t-11.5 -18.5q-17 -20 -45.5 -30t-71.5 -10q-53 0 -90 22q-58 -22 -124 -22z
M258 90q21 0 39 3q-7 7 -23.5 30t-36 54t-39.5 64t-34 59q-39 -34 -39 -91q0 -51 33 -85t100 -34z" />
    <glyph glyph-name="quotesingle" unicode="'" horiz-adv-x="195" 
d="M97 485q-20 0 -33.5 14t-13.5 34v130q0 20 13.5 33.5t33.5 13.5t34 -13.5t14 -33.5v-130q0 -20 -14 -34t-34 -14z" />
    <glyph glyph-name="parenleft" unicode="(" horiz-adv-x="300" 
d="M240 -120q-98 0 -149 67t-51 193v310q0 126 51 193t149 67q21 0 35.5 -14.5t14.5 -35.5t-14.5 -35.5t-35.5 -14.5q-53 0 -74 -42t-21 -113v-320q0 -71 21 -113t74 -42q21 0 35.5 -14.5t14.5 -35.5t-14.5 -35.5t-35.5 -14.5z" />
    <glyph glyph-name="parenright" unicode=")" horiz-adv-x="300" 
d="M60 -120q-21 0 -35.5 14.5t-14.5 35.5t14.5 35.5t35.5 14.5q53 0 74 42t21 113v320q0 71 -21 113t-74 42q-21 0 -35.5 14.5t-14.5 35.5t14.5 35.5t35.5 14.5q98 0 149 -67t51 -193v-310q0 -126 -51 -193t-149 -67z" />
    <glyph glyph-name="asterisk" unicode="*" horiz-adv-x="420" 
d="M261 342q-17 -6 -32.5 2.5t-20.5 25.5l-28 86l-74 -53q-14 -10 -31.5 -7.5t-28.5 17.5q-11 14 -7 31t18 28l73 53l-74 54q-14 11 -17 27.5t8 32.5q10 15 27.5 16.5t32.5 -9.5l73 -52l29 87q5 17 20.5 24.5t33.5 2.5t24.5 -21.5t1.5 -33.5l-28 -86h90q18 0 30.5 -12.5
t12.5 -30.5t-12.5 -30t-30.5 -12h-90l28 -86q5 -17 -3 -32.5t-25 -21.5z" />
    <glyph glyph-name="plus" unicode="+" horiz-adv-x="540" 
d="M269 42q-22 0 -36 14.5t-14 36.5v93h-92q-22 0 -36 14t-14 36t14 36.5t36 14.5h92v91q0 22 14 36t36 14t36.5 -14t14.5 -36v-91h92q22 0 36.5 -14.5t14.5 -36.5t-14.5 -36t-36.5 -14h-92v-93q0 -22 -14.5 -36.5t-36.5 -14.5z" />
    <glyph glyph-name="comma" unicode="," horiz-adv-x="200" 
d="M43 -114q-20 0 -35 13.5t-15 34.5q0 15 7 27l65 116q7 12 18.5 20t24.5 8q23 0 39.5 -14t16.5 -36q0 -14 -9 -28l-69 -116q-7 -12 -18.5 -18.5t-24.5 -6.5z" />
    <glyph glyph-name="hyphen" unicode="-" horiz-adv-x="240" 
d="M70 209q-20 0 -33.5 13.5t-13.5 33.5t13.5 34t33.5 14h100q20 0 34 -14t14 -34t-14 -33.5t-34 -13.5h-100z" />
    <glyph glyph-name="period" unicode="." horiz-adv-x="200" 
d="M100 -10q-26 0 -43 17t-17 43t17 43t43 17t43 -17t17 -43t-17 -43t-43 -17z" />
    <glyph glyph-name="slash" unicode="/" horiz-adv-x="305" 
d="M28 -30q-16 6 -24 21t-3 32l222 680q5 17 20.5 25t32.5 2q16 -6 24 -21t3 -32l-222 -680q-5 -17 -20.5 -25t-32.5 -2z" />
    <glyph glyph-name="zero" unicode="0" horiz-adv-x="570" 
d="M285 -10q-51 0 -95.5 18.5t-77.5 51t-52.5 76t-19.5 94.5t19.5 94.5t52.5 76t77.5 51t95.5 18.5t95.5 -18.5t77.5 -51t52.5 -76t19.5 -94.5t-19.5 -94.5t-52.5 -76t-77.5 -51t-95.5 -18.5zM285 85q31 0 57.5 11t46 30.5t30.5 46t11 57.5t-11 57.5t-30.5 46t-46 30.5
t-57.5 11t-57.5 -11t-46 -30.5t-30.5 -46t-11 -57.5t11 -57.5t30.5 -46t46 -30.5t57.5 -11z" />
    <glyph glyph-name="one" unicode="1" horiz-adv-x="440" 
d="M129 0q-20 0 -33.5 14t-13.5 34t13.5 33.5t33.5 13.5h60v117q0 23 3 45.5t7 35.5h-10q-5 -11 -12 -24t-17.5 -25t-26 -20t-36.5 -8q-28 0 -42 15t-14 35t14 34.5t35 14.5q38 0 59.5 22.5t21.5 64.5q0 33 17 50.5t45 17.5q26 0 41 -15.5t15 -37.5v-322h62q20 0 34 -13.5
t14 -33.5t-14 -34t-34 -14h-222z" />
    <glyph glyph-name="two" unicode="2" horiz-adv-x="420" 
d="M84 0q-20 0 -33.5 13.5t-13.5 33.5q0 27 21 48l93 93l38.5 38.5t27.5 31.5t17 29.5t6 32.5q0 20 -16 37.5t-44 17.5q-19 0 -31.5 -5.5t-22.5 -13.5t-17 -10.5t-18 -2.5q-20 0 -33.5 14t-13.5 32q0 25 17 39q20 17 47 29.5t72 12.5q35 0 64.5 -12t50.5 -32.5t33 -47
t12 -54.5q0 -23 -6.5 -45t-20 -45t-35 -48.5t-51.5 -55.5l-35 -35h154q20 0 34 -13.5t14 -33.5t-14 -34t-34 -14h-262z" />
    <glyph glyph-name="three" unicode="3" horiz-adv-x="460" 
d="M217 -198q-69 0 -110 18t-69 47q-8 9 -14.5 20t-6.5 23q0 21 14.5 36.5t36.5 15.5q9 0 18.5 -3.5t16.5 -10.5q10 -10 20 -18.5t22 -14.5t29 -9.5t43 -3.5q25 0 47 8.5t38.5 24.5t25.5 37t9 47q0 53 -36 84t-98 31h-35q-22 0 -36 12.5t-14 32.5q0 14 6.5 25.5t14.5 22.5
l108 138h-153q-20 0 -33.5 13.5t-13.5 33.5t13.5 34t33.5 14h242q20 0 35.5 -14t15.5 -34q0 -14 -5 -26t-12 -21l-108 -138v-10q30 -2 61 -15t56.5 -38t41.5 -62t16 -88q0 -47 -17 -85.5t-46.5 -67t-70 -44t-86.5 -15.5z" />
    <glyph glyph-name="four" unicode="4" horiz-adv-x="520" 
d="M308 -198q-22 0 -36 14.5t-14 36.5v147h-184q-22 0 -36 14t-14 36q0 11 4 22.5t9 22.5l225 451q8 15 20.5 24.5t27.5 9.5q20 0 34.5 -13t14.5 -34q0 -5 -1.5 -11.5t-3.5 -9.5l-208 -416h112v85q0 22 14 36.5t36 14.5t36.5 -14.5t14.5 -36.5v-85h89q21 0 34.5 -13.5
t13.5 -34.5t-13.5 -34.5t-34.5 -13.5h-89v-147q0 -22 -14.5 -36.5t-36.5 -14.5z" />
    <glyph glyph-name="five" unicode="5" horiz-adv-x="450" 
d="M200 -198q-62 0 -101.5 16t-68.5 45q-8 9 -14.5 20t-6.5 23q0 21 14.5 36.5t36.5 15.5q9 0 18.5 -3.5t16.5 -10.5q21 -20 45.5 -32.5t59.5 -12.5q56 0 80.5 33t24.5 85v28q0 24 -4.5 45.5t-15 37t-29 25t-46.5 9.5q-24 0 -40 -4t-27 -9q-7 -3 -19 -7.5t-29 -4.5t-32 13
t-15 35v222q0 22 12 37.5t40 15.5h224q20 0 34 -13.5t14 -33.5t-14 -34t-34 -14h-176v-122h10q5 4 22 9t39 5q36 0 69.5 -12t59.5 -37.5t41.5 -66t15.5 -96.5v-28q0 -45 -15 -84t-42 -68.5t-64.5 -46t-83.5 -16.5z" />
    <glyph glyph-name="six" unicode="6" horiz-adv-x="470" 
d="M235 -10q-60 0 -105.5 31t-65.5 80q-8 19 -11 41t-3 43v286q0 21 3 43t11 41q23 55 69.5 85t106.5 30q46 0 79 -15.5t50 -30.5q17 -14 17 -39q0 -18 -13.5 -32t-33.5 -14t-35 13q-10 8 -25.5 15.5t-38.5 7.5q-38 0 -64 -22.5t-26 -66.5v-156h10q7 25 34 42.5t76 17.5
q39 0 67 -13t46.5 -34t27.5 -48t9 -55v-55q0 -21 -3 -43t-11 -41q-20 -49 -65.5 -80t-105.5 -31zM235 85q38 0 61.5 23t23.5 62v55q0 70 -80 70q-36 0 -58.5 -12t-31.5 -26v-87q0 -39 23.5 -62t61.5 -23z" />
    <glyph glyph-name="seven" unicode="7" horiz-adv-x="500" 
d="M187 -198q-20 0 -34 12t-14 35q0 9 4 19l213 497h-279q-20 0 -33.5 14t-13.5 34t13.5 33.5t33.5 13.5h343q20 0 35 -14t15 -34q0 -12 -3.5 -22.5t-8.5 -24.5l-223 -530q-5 -16 -19 -24.5t-29 -8.5z" />
    <glyph glyph-name="eight" unicode="8" horiz-adv-x="480" 
d="M243 -10q-44 0 -82.5 14.5t-68 41t-46.5 64t-17 84.5q0 33 10 59.5t25 46.5t33 34.5t35 22.5v10q-12 8 -25.5 21t-24.5 29.5t-18 36t-7 40.5q0 40 15 73t40.5 55.5t59.5 35t71 12.5t70.5 -12.5t59 -35t41 -55.5t15.5 -73q0 -42 -23 -76t-53 -51v-10q18 -9 36.5 -23.5
t33.5 -34.5t24.5 -46t9.5 -59q0 -47 -17 -84.5t-46.5 -64t-68.5 -41t-82 -14.5zM243 404q38 0 62 21.5t24 63.5t-22.5 64t-63.5 22q-39 0 -62.5 -22t-23.5 -64t24 -63.5t62 -21.5zM243 85q50 0 82 30t32 84t-32 84.5t-82 30.5t-82 -30.5t-32 -84.5t31.5 -84t82.5 -30z" />
    <glyph glyph-name="nine" unicode="9" horiz-adv-x="470" 
d="M230 -198q-46 0 -79 15.5t-50 30.5q-17 14 -17 39q0 18 13.5 32t33.5 14t35 -13q10 -8 25.5 -15.5t38.5 -7.5q38 0 64 22.5t26 66.5v134h-10q-7 -25 -34 -42.5t-76 -17.5q-39 0 -67 12.5t-46.5 33.5t-27.5 48t-9 56v65q0 21 3 43t11 41q20 49 65.5 80t105.5 31t105.5 -31
t65.5 -80q8 -19 11 -41t3 -43v-274q0 -21 -3 -43t-11 -41q-23 -55 -69.5 -85t-106.5 -30zM230 155q36 0 58.5 12t31.5 26v97q0 39 -23.5 62t-61.5 23t-61.5 -23t-23.5 -62v-65q0 -70 80 -70z" />
    <glyph glyph-name="colon" unicode=":" horiz-adv-x="200" 
d="M100 350q-26 0 -43 17t-17 43t17 43t43 17t43 -17t17 -43t-17 -43t-43 -17zM100 -10q-26 0 -43 17t-17 43t17 43t43 17t43 -17t17 -43t-17 -43t-43 -17z" />
    <glyph glyph-name="semicolon" unicode=";" horiz-adv-x="200" 
d="M100 350q-26 0 -43 17t-17 43t17 43t43 17t43 -17t17 -43t-17 -43t-43 -17zM43 -114q-20 0 -35 13.5t-15 34.5q0 15 7 27l65 116q7 12 18.5 20t24.5 8q23 0 39.5 -14t16.5 -36q0 -14 -9 -28l-69 -116q-7 -12 -18.5 -18.5t-24.5 -6.5z" />
    <glyph glyph-name="less" unicode="&#x3c;" horiz-adv-x="540" 
d="M433 23q-12 0 -19 3l-340 131q-16 6 -24.5 19.5t-8.5 29.5q0 14 8.5 27.5t24.5 19.5l340 131q7 3 19 3q23 0 35.5 -14.5t12.5 -34.5q0 -15 -8.5 -28t-24.5 -18l-133 -48q-37 -14 -68 -21.5t-51 -9.5v-10q20 -2 51.5 -9t67.5 -22l133 -54q15 -6 24 -18.5t9 -27.5
q0 -20 -12.5 -34.5t-35.5 -14.5z" />
    <glyph glyph-name="equal" unicode="=" horiz-adv-x="540" 
d="M127 266q-22 0 -36 14t-14 36t14 36.5t36 14.5h285q22 0 36.5 -14.5t14.5 -36.5t-14.5 -36t-36.5 -14h-285zM127 65q-22 0 -36 14t-14 36t14 36.5t36 14.5h285q22 0 36.5 -14.5t14.5 -36.5t-14.5 -36t-36.5 -14h-285z" />
    <glyph glyph-name="greater" unicode="&#x3e;" horiz-adv-x="540" 
d="M101 23q-23 0 -35.5 14.5t-12.5 34.5q0 15 9 27.5t24 18.5l133 54q36 15 67.5 22t51.5 9v10q-20 2 -51 9.5t-68 21.5l-133 48q-16 5 -24.5 18t-8.5 28q0 20 12.5 34.5t35.5 14.5q11 0 19 -3l340 -131q16 -6 24.5 -19.5t8.5 -27.5q0 -16 -8.5 -29.5t-24.5 -19.5l-340 -131
q-8 -3 -19 -3z" />
    <glyph glyph-name="question" unicode="?" horiz-adv-x="378" 
d="M180 153q-31 0 -58.5 11.5t-48 31t-32.5 46t-12 56.5q0 36 13 63.5t35.5 47.5t51.5 34t62 24q20 6 38.5 22.5t18.5 51.5q0 32 -23.5 49.5t-54.5 17.5q-23 0 -39.5 -7t-25.5 -15q-14 -11 -33 -11q-21 0 -36 15t-15 36q0 11 5 22t13 19q17 17 50.5 30t80.5 13q38 0 71 -13
t57 -36t38 -53.5t14 -66.5q0 -41 -14.5 -71t-39 -52t-56 -37.5t-65.5 -26.5q-14 -5 -28 -18t-14 -38q0 -19 12.5 -31t34.5 -12q16 0 26 6.5t17 11.5q13 11 33 11q23 0 37.5 -14t14.5 -37q0 -24 -20 -42q-42 -38 -108 -38zM180 -10q-26 0 -43 17t-17 43t17 43t43 17t43 -17
t17 -43t-17 -43t-43 -17z" />
    <glyph glyph-name="at" unicode="@" 
d="M305 -240q-81 0 -142.5 40.5t-91.5 108.5q-11 25 -16 56t-5 65v410q0 34 5 65t16 56q30 68 93.5 108.5t150.5 40.5q47 0 91 -15t78.5 -44t55 -71.5t20.5 -97.5v-297q0 -21 -3 -43t-11 -41q-20 -49 -65.5 -80t-105.5 -31t-105.5 31t-65.5 80q-8 19 -11 41t-3 43v103
q0 22 2.5 43.5t13.5 44.5q18 40 56 67t95 27q36 0 61 -12.5t32 -37.5h10v62q0 38 -12.5 63.5t-32.5 41t-46 22t-54 6.5t-52 -7t-43 -19t-33 -27t-22 -31q-8 -17 -11.5 -39.5t-3.5 -46.5v-420q0 -24 3.5 -46.5t11.5 -39.5q8 -16 22 -31t32 -27t40 -19t46 -7q39 0 65 14.5
t37 23.5q14 11 33 11q22 0 35.5 -13t13.5 -35q0 -23 -20 -40q-29 -24 -69 -40t-95 -16zM375 85q38 0 61.5 23t23.5 62v175q-12 12 -29 21t-47 9q-51 0 -72.5 -25.5t-21.5 -66.5v-113q0 -39 23.5 -62t61.5 -23z" />
    <glyph glyph-name="A" unicode="A" 
d="M455 310v135q0 24 -3.5 46.5t-11.5 39.5q-16 32 -51.5 55.5t-83.5 23.5t-83.5 -23.5t-51.5 -55.5q-8 -17 -11.5 -39.5t-3.5 -46.5v-135h300zM102 -10q-22 0 -37 15.5t-15 37.5v397q0 34 5 65t16 56q30 68 91 108.5t143 40.5q81 0 142.5 -40.5t91.5 -108.5q11 -25 16 -56
t5 -65v-397q0 -22 -15 -37.5t-37 -15.5t-37.5 15.5t-15.5 37.5v167h-300v-167q0 -22 -15.5 -37.5t-37.5 -15.5z" />
    <glyph glyph-name="B" unicode="B" horiz-adv-x="520" 
d="M105 0q-23 0 -39 15t-16 38v594q0 22 14.5 37.5t37.5 15.5h150q41 0 77 -15t63 -41.5t42.5 -62t15.5 -76.5q0 -27 -8 -48.5t-19.5 -38t-24 -27t-22.5 -16.5v-10q23 -8 45.5 -22.5t40 -35t28 -47.5t10.5 -58q0 -44 -16.5 -81t-44 -64t-64.5 -42t-78 -15h-192zM244 405
q44 0 72.5 28.5t28.5 71.5q0 44 -25 69.5t-63 25.5h-102v-195h89zM302 100q38 0 65.5 27.5t27.5 74.5q0 46 -33 74.5t-83 28.5h-124v-205h147z" />
    <glyph glyph-name="C" unicode="C" horiz-adv-x="510" 
d="M295 -10q-81 0 -142.5 40.5t-91.5 108.5q-11 25 -16 56t-5 65v180q0 34 5 65t16 56q30 68 91 108.5t143 40.5q54 0 96.5 -16t63.5 -39q8 -9 14 -19.5t6 -22.5q0 -21 -15.5 -35t-37.5 -14q-19 0 -33 11q-12 9 -33.5 22t-60.5 13q-48 0 -83.5 -23.5t-51.5 -55.5
q-8 -17 -11.5 -39.5t-3.5 -46.5v-190q0 -24 3.5 -46.5t11.5 -39.5q16 -32 51.5 -55.5t83.5 -23.5q39 0 63.5 13t35.5 22q14 11 33 11q22 0 37 -14t15 -36q0 -23 -20 -40q-29 -24 -69 -40t-95 -16z" />
    <glyph glyph-name="D" unicode="D" horiz-adv-x="560" 
d="M102 0q-26 0 -39 15.5t-13 37.5v594q0 22 14.5 37.5t37.5 15.5h163q81 0 142.5 -40.5t91.5 -108.5q11 -25 16 -56t5 -65v-160q0 -34 -5 -65t-16 -56q-30 -68 -91 -108.5t-143 -40.5h-163zM265 100q48 0 83.5 23.5t51.5 55.5q8 17 11.5 39.5t3.5 46.5v170q0 24 -3.5 46.5
t-11.5 39.5q-16 32 -51.5 55.5t-83.5 23.5h-110v-500h110z" />
    <glyph glyph-name="E" unicode="E" horiz-adv-x="490" 
d="M268 -10q-47 0 -88 14.5t-72.5 41t-49.5 64t-18 84.5q0 33 8.5 59.5t22.5 47.5t32 36.5t36 24.5v10q-16 9 -30.5 24t-26 34.5t-18 42t-6.5 46.5q0 42 17 77t45.5 60.5t67 39.5t81.5 14q58 0 97.5 -16.5t62.5 -42.5q8 -9 14 -19.5t6 -22.5q0 -22 -15 -36t-37 -14
q-20 0 -33 11q-15 13 -35.5 26.5t-59.5 13.5q-23 0 -42.5 -7.5t-33.5 -21t-22 -31t-8 -36.5q0 -41 28.5 -70.5t72.5 -29.5h107q21 0 35.5 -14.5t14.5 -35.5t-14.5 -35.5t-35.5 -14.5h-107q-53 0 -86 -32t-33 -83t35 -80t88 -29q25 0 42.5 3.5t29.5 9.5t21.5 14.5t20.5 18.5
q7 7 16.5 10.5t18.5 3.5q22 0 36.5 -15.5t14.5 -36.5q0 -12 -6.5 -23t-14.5 -20q-14 -15 -31 -27t-38.5 -20.5t-48.5 -13t-61 -4.5z" />
    <glyph glyph-name="F" unicode="F" horiz-adv-x="490" 
d="M102 -10q-22 0 -37 15.5t-15 37.5v604q0 22 14.5 37.5t37.5 15.5h332q21 0 35.5 -14.5t14.5 -35.5t-14.5 -35.5t-35.5 -14.5h-279v-195h239q21 0 35.5 -14.5t14.5 -35.5t-14.5 -35.5t-35.5 -14.5h-239v-262q0 -22 -15.5 -37.5t-37.5 -15.5z" />
    <glyph glyph-name="G" unicode="G" horiz-adv-x="550" 
d="M295 -10q-81 0 -142.5 40.5t-91.5 108.5q-11 25 -16 56t-5 65v180q0 34 5 65t16 56q30 68 90 108.5t142 40.5q54 0 99 -17t71 -44q8 -9 14 -19.5t6 -24.5q0 -18 -14 -33.5t-39 -15.5q-19 0 -33 11q-5 4 -14.5 11t-23 14t-30.5 12.5t-36 5.5q-48 0 -82.5 -23.5
t-50.5 -55.5q-8 -17 -11.5 -39.5t-3.5 -46.5v-190q0 -24 3.5 -46.5t11.5 -39.5q16 -32 51.5 -55.5t83.5 -23.5q35 0 65 14t45 35v135h-90q-21 0 -35.5 14.5t-14.5 35.5t14.5 35.5t35.5 14.5h143q28 0 40 -15.5t12 -37.5v-182q0 -30 -13.5 -52t-37.5 -41q-29 -24 -69 -40
t-95 -16z" />
    <glyph glyph-name="H" unicode="H" 
d="M155 43q0 -22 -15.5 -37.5t-37.5 -15.5t-37 15.5t-15 37.5v614q0 22 15 37.5t37 15.5t37.5 -15.5t15.5 -37.5v-252h300v252q0 22 15 37.5t37 15.5t37.5 -15.5t15.5 -37.5v-614q0 -22 -15.5 -37.5t-37.5 -15.5t-37 15.5t-15 37.5v262h-300v-262z" />
    <glyph glyph-name="I" unicode="I" horiz-adv-x="225" 
d="M112 -10q-22 0 -37 15.5t-15 37.5v614q0 22 15 37.5t37 15.5t37.5 -15.5t15.5 -37.5v-614q0 -22 -15.5 -37.5t-37.5 -15.5z" />
    <glyph glyph-name="J" unicode="J" horiz-adv-x="385" 
d="M145 -10q-46 0 -75.5 14t-45.5 28q-17 15 -17 39q0 20 14.5 35t34.5 15q11 0 18 -2.5t17 -10.5t22.5 -13t31.5 -5q38 0 61.5 23t23.5 62v482q0 22 15 37.5t37 15.5t37.5 -15.5t15.5 -37.5v-472q0 -21 -3 -43t-11 -41q-20 -49 -66 -80t-110 -31z" />
    <glyph glyph-name="K" unicode="K" horiz-adv-x="530" 
d="M102 -10q-22 0 -37 15.5t-15 37.5v614q0 22 15 37.5t37 15.5t37.5 -15.5t15.5 -37.5v-172q0 -25 -1.5 -43.5t-6.5 -30.5l10 -4q7 12 17 27t24 32l190 226q15 18 40 18q20 0 34.5 -15t14.5 -37q0 -19 -12 -32l-137 -163l186 -398q5 -12 5 -22q0 -23 -15.5 -38t-38.5 -15
q-14 0 -27 7.5t-20 22.5l-164 354l-99 -117v-214q0 -22 -15.5 -37.5t-37.5 -15.5z" />
    <glyph glyph-name="L" unicode="L" horiz-adv-x="480" 
d="M102 0q-28 0 -40 15.5t-12 37.5v604q0 22 15 37.5t37 15.5t37.5 -15.5t15.5 -37.5v-557h269q21 0 35.5 -14.5t14.5 -35.5t-14.5 -35.5t-35.5 -14.5h-322z" />
    <glyph glyph-name="M" unicode="M" horiz-adv-x="1016" 
d="M102 -10q-22 0 -37 15.5t-15 37.5v397q0 34 5 65t16 56q30 68 91 108.5t143 40.5q35 0 66 -9t56.5 -24t44.5 -34.5t31 -39.5h10q12 20 31 39.5t44.5 34.5t56.5 24t66 9q81 0 142.5 -40.5t91.5 -108.5q11 -25 16 -56t5 -65v-397q0 -22 -15 -37.5t-37 -15.5t-37.5 15.5
t-15.5 37.5v402q0 24 -3.5 46.5t-11.5 39.5q-16 32 -51.5 55.5t-83.5 23.5t-83.5 -23.5t-51.5 -55.5q-8 -17 -11.5 -39.5t-3.5 -46.5v-402q0 -22 -15.5 -37.5t-37.5 -15.5t-37 15.5t-15 37.5l-1 402q0 24 -3.5 46.5t-11.5 39.5q-16 32 -51.5 55.5t-83.5 23.5t-83.5 -23.5
t-51.5 -55.5q-8 -17 -11.5 -39.5t-3.5 -46.5v-402q0 -22 -15.5 -37.5t-37.5 -15.5z" />
    <glyph glyph-name="N" unicode="N" 
d="M305 710q81 0 142.5 -40.5t91.5 -108.5q11 -25 16 -56t5 -65v-397q0 -22 -15 -37.5t-37 -15.5t-37.5 15.5t-15.5 37.5v402q0 24 -3.5 46.5t-11.5 39.5q-16 32 -51.5 55.5t-83.5 23.5t-83.5 -23.5t-51.5 -55.5q-8 -17 -11.5 -39.5t-3.5 -46.5v-402q0 -22 -15.5 -37.5
t-37.5 -15.5t-37 15.5t-15 37.5v397q0 34 5 65t16 56q30 68 91 108.5t143 40.5z" />
    <glyph glyph-name="O" unicode="O" horiz-adv-x="590" 
d="M295 -10q-81 0 -142.5 40.5t-91.5 108.5q-11 25 -16 56t-5 65v180q0 34 5 65t16 56q30 68 91 108.5t143 40.5q81 0 142.5 -40.5t91.5 -108.5q11 -25 16 -56t5 -65v-180q0 -34 -5 -65t-16 -56q-30 -68 -91 -108.5t-143 -40.5zM295 90q48 0 83.5 23.5t51.5 55.5
q8 17 11.5 39.5t3.5 46.5v190q0 24 -3.5 46.5t-11.5 39.5q-16 32 -51.5 55.5t-83.5 23.5t-83.5 -23.5t-51.5 -55.5q-8 -17 -11.5 -39.5t-3.5 -46.5v-190q0 -24 3.5 -46.5t11.5 -39.5q16 -32 51.5 -55.5t83.5 -23.5z" />
    <glyph glyph-name="P" unicode="P" horiz-adv-x="510" 
d="M102 -10q-22 0 -37 15.5t-15 37.5v604q0 22 14.5 37.5t37.5 15.5h170q45 0 86 -15.5t72.5 -44t50.5 -69t19 -89.5q0 -50 -19 -90t-50.5 -68.5t-72.5 -43.5t-86 -15h-117v-222q0 -22 -15.5 -37.5t-37.5 -15.5zM282 365q47 0 80 30t33 87q0 56 -33 87t-80 31h-127v-235h127
z" />
    <glyph glyph-name="Q" unicode="Q" horiz-adv-x="590" 
d="M445 -140q-38 0 -66 12t-50.5 26t-41.5 26t-40 12q-12 0 -22.5 -6t-21.5 -15q-14 -11 -33 -11q-22 0 -37 14t-15 36q0 27 15 43t48 29t68.5 22t69.5 22.5t62.5 36t48.5 62.5q8 17 11.5 39.5t3.5 46.5v190q0 24 -3.5 46.5t-11.5 39.5q-16 32 -51.5 55.5t-83.5 23.5
t-83.5 -23.5t-51.5 -55.5q-8 -17 -11.5 -39.5t-3.5 -46.5v-160q0 -73 69 -104q18 -8 24 -18.5t6 -22.5q0 -22 -15 -38t-40 -16q-15 0 -31 6q-49 19 -83.5 70.5t-34.5 127.5v150q0 34 5 65t16 56q30 68 91 108.5t143 40.5q81 0 142.5 -40.5t91.5 -108.5q11 -25 16 -56t5 -65
v-180q0 -34 -5 -65t-16 -56q-27 -60 -70.5 -92t-88.5 -43v-10q12 -12 32 -21.5t40 -9.5q16 0 27 6t22 15q14 11 33 11q22 0 37 -14t15 -36q0 -16 -9.5 -31.5t-26.5 -27.5t-41 -19t-54 -7z" />
    <glyph glyph-name="R" unicode="R" horiz-adv-x="520" 
d="M102 -10q-22 0 -37 15.5t-15 37.5v604q0 22 14.5 37.5t37.5 15.5h155q45 0 84.5 -14.5t69.5 -41.5t47 -65.5t17 -86.5q0 -34 -10.5 -63t-27 -51.5t-37.5 -39t-41 -26.5l130 -247q2 -4 4 -11t2 -12q0 -23 -16 -37.5t-39 -14.5q-14 0 -26.5 7.5t-20.5 22.5l-136 265h-102
v-242q0 -22 -15.5 -37.5t-37.5 -15.5zM262 385q47 0 77.5 28t30.5 79t-28 79.5t-75 28.5h-112v-215h107z" />
    <glyph glyph-name="S" unicode="S" horiz-adv-x="470" 
d="M215 -10q-55 0 -95 15t-69 41q-20 18 -20 43q0 22 15 36t37 14q19 0 33 -11q11 -9 35.5 -23.5t63.5 -14.5q24 0 45.5 6t38 18.5t26.5 31t10 43.5q0 23 -8.5 40t-22 29t-29 19.5t-28.5 11.5q-44 13 -82.5 31t-67.5 44.5t-45.5 63t-16.5 87.5q0 39 15.5 74.5t43.5 62
t66.5 42.5t84.5 16q49 0 90 -16t62 -39q8 -9 14 -19.5t6 -22.5q0 -22 -16 -37t-38 -15q-19 0 -33 11q-13 11 -33 24.5t-59 13.5q-47 0 -74.5 -27t-27.5 -68q0 -46 24 -68t61 -34q43 -14 82.5 -31.5t70 -43.5t48.5 -62.5t18 -86.5q0 -44 -18.5 -80.5t-50 -63t-72 -41
t-84.5 -14.5z" />
    <glyph glyph-name="T" unicode="T" horiz-adv-x="545" 
d="M273 -10q-22 0 -37.5 15.5t-15.5 37.5v557h-165q-21 0 -35.5 14.5t-14.5 35.5t14.5 35.5t35.5 14.5h435q21 0 35.5 -14.5t14.5 -35.5t-14.5 -35.5t-35.5 -14.5h-165v-557q0 -22 -15 -37.5t-37 -15.5z" />
    <glyph glyph-name="U" unicode="U" 
d="M305 -10q-81 0 -142.5 40.5t-91.5 108.5q-11 25 -16 56t-5 65v397q0 22 15 37.5t37 15.5t37.5 -15.5t15.5 -37.5v-402q0 -24 3.5 -46.5t11.5 -39.5q16 -32 51.5 -55.5t83.5 -23.5t83.5 23.5t51.5 55.5q8 17 11.5 39.5t3.5 46.5v402q0 22 15.5 37.5t37.5 15.5t37 -15.5
t15 -37.5v-397q0 -34 -5 -65t-16 -56q-30 -68 -91 -108.5t-143 -40.5z" />
    <glyph glyph-name="V" unicode="V" horiz-adv-x="562" 
d="M281 -10q-16 0 -30 8.5t-19 24.5l-224 620q-3 7 -3 19q0 23 15 35.5t35 12.5q15 0 28.5 -8.5t18.5 -24.5l143 -415q13 -37 21 -69.5t10 -52.5h10q2 20 10 52.5t21 69.5l143 415q5 16 18.5 24.5t28.5 8.5q20 0 35 -12.5t15 -35.5q0 -12 -3 -19l-224 -620
q-6 -16 -20.5 -24.5t-28.5 -8.5z" />
    <glyph glyph-name="W" unicode="W" horiz-adv-x="1016" 
d="M914 710q22 0 37 -15.5t15 -37.5v-397q0 -34 -5 -65t-16 -56q-30 -68 -91 -108.5t-143 -40.5q-35 0 -66 9t-56.5 24t-44.5 34.5t-31 39.5h-10q-12 -20 -31 -39.5t-44.5 -34.5t-56.5 -24t-66 -9q-81 0 -142.5 40.5t-91.5 108.5q-11 25 -16 56t-5 65v397q0 22 15 37.5
t37 15.5t37.5 -15.5t15.5 -37.5v-402q0 -24 3.5 -46.5t11.5 -39.5q16 -32 51.5 -55.5t83.5 -23.5t83.5 23.5t51.5 55.5q8 17 11.5 39.5t3.5 46.5v402q0 22 15.5 37.5t37.5 15.5t37 -15.5t15 -37.5l1 -402q0 -24 3.5 -46.5t11.5 -39.5q16 -32 51.5 -55.5t83.5 -23.5
t83.5 23.5t51.5 55.5q8 17 11.5 39.5t3.5 46.5v402q0 22 15.5 37.5t37.5 15.5z" />
    <glyph glyph-name="X" unicode="X" horiz-adv-x="600" 
d="M102 -10q-22 0 -37 15.5t-15 37.5v95q0 34 5 65t16 56q7 15 17 29.5t22 26.5t24 21t22 14v10q-9 4 -21 13.5t-24 21.5t-22.5 26.5t-17.5 29.5q-11 25 -16 56t-5 65v85q0 22 15 37.5t37 15.5t37.5 -15.5t15.5 -37.5v-90q0 -24 3.5 -46.5t11.5 -39.5q16 -32 49 -55.5
t81 -23.5t81 23.5t49 55.5q8 17 11.5 39.5t3.5 46.5v90q0 22 15.5 37.5t37.5 15.5t37 -15.5t15 -37.5v-85q0 -34 -5 -65t-16 -56q-7 -15 -17.5 -29.5t-22.5 -26.5t-24 -21t-22 -14v-10q20 -11 46 -35.5t40 -55.5q11 -25 16 -56t5 -65v-95q0 -22 -15 -37.5t-37 -15.5
t-37.5 15.5t-15.5 37.5v100q0 24 -3.5 46.5t-11.5 39.5q-16 32 -49 55.5t-81 23.5t-81 -23.5t-49 -55.5q-8 -17 -11.5 -39.5t-3.5 -46.5v-100q0 -22 -15.5 -37.5t-37.5 -15.5z" />
    <glyph glyph-name="Y" unicode="Y" 
d="M305 -10q-22 0 -37 15.5t-15 37.5v192q-63 12 -110 49.5t-72 94.5q-11 25 -16 56t-5 65v157q0 22 15 37.5t37 15.5t37.5 -15.5t15.5 -37.5v-162q0 -24 3.5 -46.5t11.5 -39.5q16 -32 51.5 -55.5t83.5 -23.5t83.5 23.5t51.5 55.5q8 17 11.5 39.5t3.5 46.5v162
q0 22 15.5 37.5t37.5 15.5t37 -15.5t15 -37.5v-157q0 -34 -5 -65t-16 -56q-25 -57 -71.5 -94.5t-109.5 -49.5v-192q0 -22 -15.5 -37.5t-37.5 -15.5z" />
    <glyph glyph-name="Z" unicode="Z" horiz-adv-x="575" 
d="M67 0q-20 0 -33.5 13.5t-13.5 33.5q0 14 6.5 25t14.5 23l338 505h-289q-21 0 -35.5 14.5t-14.5 35.5t14.5 35.5t35.5 14.5h384q20 0 35 -14t15 -34q0 -14 -4 -24.5t-12 -22.5l-338 -505h324q21 0 35.5 -14.5t14.5 -35.5t-14.5 -35.5t-35.5 -14.5h-427z" />
    <glyph glyph-name="bracketleft" unicode="[" horiz-adv-x="265" 
d="M92 -110q-26 0 -39 15.5t-13 37.5v704q0 22 14.5 37.5t37.5 15.5h103q21 0 35.5 -14.5t14.5 -35.5t-14.5 -35.5t-35.5 -14.5h-50v-610h50q21 0 35.5 -14.5t14.5 -35.5t-14.5 -35.5t-35.5 -14.5h-103z" />
    <glyph glyph-name="backslash" unicode="\" horiz-adv-x="305" 
d="M276 -30q-17 -6 -32.5 2t-20.5 25l-222 680q-5 17 3 32t24 21q17 6 32.5 -2t20.5 -25l222 -680q5 -17 -3 -32t-24 -21z" />
    <glyph glyph-name="bracketright" unicode="]" horiz-adv-x="265" 
d="M70 -110q-21 0 -35.5 14.5t-14.5 35.5t14.5 35.5t35.5 14.5h50v610h-50q-21 0 -35.5 14.5t-14.5 35.5t14.5 35.5t35.5 14.5h103q23 0 37.5 -15.5t14.5 -37.5v-704q0 -22 -13 -37.5t-39 -15.5h-103z" />
    <glyph glyph-name="asciicircum" unicode="^" horiz-adv-x="540" 
d="M124 41q-20 0 -34.5 12.5t-14.5 35.5q0 11 3 19l131 340q6 16 19.5 24.5t29.5 8.5q14 0 27.5 -8.5t19.5 -24.5l131 -340q3 -8 3 -19q0 -23 -14.5 -35.5t-34.5 -12.5q-15 0 -28 8.5t-18 24.5l-48 133q-14 37 -21.5 68t-9.5 51h-10q-2 -20 -9 -51.5t-22 -67.5l-54 -133
q-6 -15 -18.5 -24t-27.5 -9z" />
    <glyph glyph-name="underscore" unicode="_" horiz-adv-x="280" 
d="M0 -140q-22 0 -36 14t-14 36t14 36.5t36 14.5h280q22 0 36.5 -14.5t14.5 -36.5t-14.5 -36t-36.5 -14h-280z" />
    <glyph glyph-name="grave" unicode="`" horiz-adv-x="450" 
d="M243 512q-23 0 -37 17l-64 77q-12 15 -12 32q0 19 14.5 32.5t33.5 13.5q23 0 37 -17l64 -76q11 -13 11 -32q0 -20 -14.5 -33.5t-32.5 -13.5z" />
    <glyph glyph-name="a" unicode="a" horiz-adv-x="460" 
d="M190 -10q-39 0 -67 14.5t-46.5 37t-27.5 51t-9 57.5v138q0 22 2.5 43.5t13.5 44.5q18 40 56 67t95 27q36 0 61 -12.5t32 -37.5h10q0 21 14.5 35.5t35.5 14.5t35.5 -14.5t14.5 -35.5v-380q0 -21 -14.5 -35.5t-35.5 -14.5t-35.5 14.5t-14.5 35.5v10h-10q-7 -25 -34 -42.5
t-76 -17.5zM220 85q36 0 58.5 12t31.5 26v222q-12 12 -29 21t-47 9q-51 0 -72.5 -25.5t-21.5 -66.5v-118q0 -35 19 -57.5t61 -22.5z" />
    <glyph glyph-name="b" unicode="b" horiz-adv-x="460" 
d="M50 660q0 21 14.5 35.5t35.5 14.5t35.5 -14.5t14.5 -35.5v-250h10q7 25 34 42.5t76 17.5q39 0 67 -14.5t46.5 -37t27.5 -51.5t9 -57v-125q0 -21 -3 -43t-11 -41q-20 -49 -65.5 -80t-105.5 -31t-105.5 31t-65.5 80q-8 19 -11 41t-3 43v475zM150 170q0 -39 23.5 -62
t61.5 -23t61.5 23t23.5 62v125q0 35 -19 57.5t-61 22.5q-36 0 -58.5 -12t-31.5 -26v-167z" />
    <glyph glyph-name="c" unicode="c" horiz-adv-x="390" 
d="M225 -10q-64 0 -107.5 31t-63.5 80q-8 19 -11 41t-3 43v90q0 21 3 43t11 41q20 49 65.5 80t105.5 31q46 0 76.5 -15t42.5 -26q17 -14 17 -39q0 -18 -13.5 -32t-33.5 -14q-11 0 -18 2.5t-17 10.5t-22.5 13t-31.5 5q-38 0 -61.5 -23t-23.5 -62v-120q0 -39 23.5 -62
t61.5 -23q19 0 31.5 5t22.5 13t17 10.5t18 2.5q20 0 33.5 -14t13.5 -32q0 -24 -17 -39q-16 -14 -44.5 -27.5t-74.5 -13.5z" />
    <glyph glyph-name="d" unicode="d" horiz-adv-x="460" 
d="M40 288q0 22 2.5 43.5t13.5 44.5q18 40 56 67t95 27q36 0 61 -12.5t32 -37.5h10v240q0 21 14.5 35.5t35.5 14.5t35.5 -14.5t14.5 -35.5v-475q0 -21 -3 -43t-11 -41q-20 -49 -65.5 -80t-105.5 -31t-105.5 31t-65.5 80q-8 19 -11 41t-3 43v103zM140 170q0 -39 23.5 -62
t61.5 -23t61.5 23t23.5 62v175q-12 12 -29 21t-47 9q-51 0 -72.5 -25.5t-21.5 -66.5v-113z" />
    <glyph glyph-name="e" unicode="e" horiz-adv-x="435" 
d="M235 -10q-69 0 -115 31t-66 80q-8 19 -11 41t-3 43v90q0 21 3 43t11 41q20 49 61.5 80t101.5 31t102.5 -31t62.5 -80q8 -19 10.5 -41t2.5 -43v-44q0 -20 -14 -33.5t-34 -13.5h-207v-14q0 -39 26 -62t69 -23q19 0 34 5.5t25 13.5t17 10.5t18 2.5q20 0 33.5 -14t13.5 -32
q0 -24 -17 -39q-16 -14 -47 -28t-77 -14zM295 279v14q0 39 -20 60.5t-58 21.5t-57.5 -21.5t-19.5 -60.5v-14h155z" />
    <glyph glyph-name="f" unicode="f" horiz-adv-x="290" 
d="M34 -240q-26 0 -40 14t-14 34t13 33.5t34 13.5q28 0 45.5 22.5t17.5 57.5v430h-30q-20 0 -33.5 13.5t-13.5 33.5t13.5 34t33.5 14h30v90q0 30 11 59t31 51.5t49 36t65 13.5q26 0 40 -14t14 -34t-13 -33.5t-34 -13.5q-28 0 -45.5 -22.5t-17.5 -57.5v-75h42q20 0 34 -14
t14 -34t-14 -33.5t-34 -13.5h-42v-445q0 -30 -11 -59t-31 -51.5t-49 -36t-65 -13.5z" />
    <glyph glyph-name="g" unicode="g" horiz-adv-x="460" 
d="M310 290q0 39 -23.5 62t-61.5 23t-61.5 -23t-23.5 -62v-125q0 -35 19 -57.5t61 -22.5q36 0 58.5 12t31.5 26v167zM310 50h-10q-7 -25 -34 -42.5t-76 -17.5q-39 0 -67 14.5t-46.5 37t-27.5 51t-9 57.5v125q0 21 3 43t11 41q20 49 65.5 80t105.5 31t105.5 -31t65.5 -80
q8 -19 11 -41t3 -43v-300q0 -29 -6 -57.5t-20 -53.5q-25 -46 -70.5 -75t-108.5 -29q-29 0 -52 6t-40 14t-29 17t-18 14q-17 14 -17 39q0 18 13.5 32t33.5 14q11 0 18 -2.5t17 -10.5t27.5 -18t46.5 -10q55 0 80 31t25 74v90z" />
    <glyph glyph-name="h" unicode="h" horiz-adv-x="470" 
d="M100 -10q-21 0 -35.5 14.5t-14.5 35.5v620q0 21 14.5 35.5t35.5 14.5t35.5 -14.5t14.5 -35.5v-250h10q7 25 34 42.5t76 17.5q39 0 67 -13t46.5 -34t27.5 -48t9 -55v-280q0 -21 -14.5 -35.5t-35.5 -14.5t-35.5 14.5t-14.5 35.5v265q0 70 -80 70q-36 0 -58.5 -12t-31.5 -26
v-297q0 -21 -14.5 -35.5t-35.5 -14.5z" />
    <glyph glyph-name="i" unicode="i" horiz-adv-x="220" 
d="M110 530q-26 0 -43 17t-17 43t17 43t43 17t43 -17t17 -43t-17 -43t-43 -17zM110 -10q-21 0 -35.5 14.5t-14.5 35.5v380q0 21 14.5 35.5t35.5 14.5t35.5 -14.5t14.5 -35.5v-380q0 -21 -14.5 -35.5t-35.5 -14.5z" />
    <glyph glyph-name="j" unicode="j" horiz-adv-x="220" 
d="M110 530q-26 0 -43 17t-17 43t17 43t43 17t43 -17t17 -43t-17 -43t-43 -17zM16 -240q-26 0 -40 14t-14 34t13 33.5t34 13.5q20 0 35.5 17.5t15.5 52.5v495q0 21 14.5 35.5t35.5 14.5t35.5 -14.5t14.5 -35.5v-510q0 -29 -9 -56t-27 -48t-45 -33.5t-63 -12.5z" />
    <glyph glyph-name="k" unicode="k" horiz-adv-x="455" 
d="M100 -10q-21 0 -35.5 14.5t-14.5 35.5v620q0 21 14.5 35.5t35.5 14.5t35.5 -14.5t14.5 -35.5v-270h10q3 10 10 23.5t20.5 26t34.5 21.5t51 9q28 0 51.5 -10.5t40.5 -28t27 -39.5t10 -45q0 -41 -19 -67t-39 -35v-10q10 -4 20 -12.5t18.5 -21.5t14 -29.5t5.5 -35.5v-96
q0 -21 -14.5 -35.5t-35.5 -14.5t-35.5 14.5t-14.5 35.5v85q0 35 -17.5 44t-49.5 9q-21 0 -34 13.5t-13 33.5t14 34t40 14q29 0 44.5 16.5t15.5 38.5q0 19 -12 33t-44 14q-40 0 -69.5 -38.5t-29.5 -118.5v-178q0 -21 -14.5 -35.5t-35.5 -14.5z" />
    <glyph glyph-name="l" unicode="l" horiz-adv-x="230" 
d="M171 -10q-32 0 -53.5 10t-34.5 27.5t-18 41.5t-5 51v540q0 21 14.5 35.5t35.5 14.5t35.5 -14.5t14.5 -35.5v-552q0 -23 21 -23t34 -13.5t13 -33.5t-14 -34t-43 -14z" />
    <glyph glyph-name="m" unicode="m" horiz-adv-x="740" 
d="M100 -10q-21 0 -35.5 14.5t-14.5 35.5v235q0 21 3 43t11 41q20 49 65.5 80t105.5 31q48 0 80.5 -20t49.5 -46h10q17 26 48 46t82 20q60 0 105.5 -31t65.5 -80q8 -19 11 -41t3 -43v-235q0 -21 -14.5 -35.5t-35.5 -14.5t-35.5 14.5t-14.5 35.5v250q0 39 -23.5 62t-61.5 23
t-61.5 -23t-23.5 -62v-250q0 -21 -14.5 -35.5t-35.5 -14.5t-35.5 14.5t-14.5 35.5v250q0 39 -23.5 62t-61.5 23t-61.5 -23t-23.5 -62v-250q0 -21 -14.5 -35.5t-35.5 -14.5z" />
    <glyph glyph-name="n" unicode="n" horiz-adv-x="470" 
d="M100 -10q-21 0 -35.5 14.5t-14.5 35.5v235q0 21 3 43t11 41q20 49 65.5 80t105.5 31t105.5 -31t65.5 -80q8 -19 11 -41t3 -43v-235q0 -21 -14.5 -35.5t-35.5 -14.5t-35.5 14.5t-14.5 35.5v250q0 39 -23.5 62t-61.5 23t-61.5 -23t-23.5 -62v-250q0 -21 -14.5 -35.5
t-35.5 -14.5z" />
    <glyph glyph-name="o" unicode="o" horiz-adv-x="450" 
d="M225 -10q-60 0 -105.5 31t-65.5 80q-8 19 -11 41t-3 43v90q0 21 3 43t11 41q20 49 65.5 80t105.5 31t105.5 -31t65.5 -80q8 -19 11 -41t3 -43v-90q0 -21 -3 -43t-11 -41q-20 -49 -65.5 -80t-105.5 -31zM225 85q38 0 61.5 23t23.5 62v120q0 39 -23.5 62t-61.5 23
t-61.5 -23t-23.5 -62v-120q0 -39 23.5 -62t61.5 -23z" />
    <glyph glyph-name="p" unicode="p" horiz-adv-x="460" 
d="M100 -240q-21 0 -35.5 14.5t-14.5 35.5v465q0 21 3 43t11 41q20 49 65.5 80t105.5 31t105.5 -31t65.5 -80q8 -19 11 -41t3 -43v-103q0 -22 -2.5 -43.5t-13.5 -44.5q-18 -40 -56 -67t-95 -27q-36 0 -61 12.5t-32 37.5h-10v-230q0 -21 -14.5 -35.5t-35.5 -14.5zM226 85
q51 0 72.5 25.5t21.5 66.5v113q0 39 -23.5 62t-61.5 23t-61.5 -23t-23.5 -62v-175q12 -12 29 -21t47 -9z" />
    <glyph glyph-name="q" unicode="q" horiz-adv-x="460" 
d="M410 -190q0 -21 -14.5 -35.5t-35.5 -14.5t-35.5 14.5t-14.5 35.5v240h-10q-7 -25 -34 -42.5t-76 -17.5q-39 0 -67 14.5t-46.5 37t-27.5 51t-9 57.5v125q0 21 3 43t11 41q20 49 65.5 80t105.5 31t105.5 -31t65.5 -80q8 -19 11 -41t3 -43v-465zM310 290q0 39 -23.5 62
t-61.5 23t-61.5 -23t-23.5 -62v-125q0 -35 19 -57.5t61 -22.5q36 0 58.5 12t31.5 26v167z" />
    <glyph glyph-name="r" unicode="r" horiz-adv-x="290" 
d="M100 -10q-21 0 -35.5 14.5t-14.5 35.5v235q0 42 12.5 77.5t36 61.5t58 41t78.5 15q22 0 36 -13.5t14 -36.5q0 -21 -14.5 -35.5t-35.5 -14.5q-38 0 -61.5 -20.5t-23.5 -59.5v-250q0 -21 -14.5 -35.5t-35.5 -14.5z" />
    <glyph glyph-name="s" unicode="s" horiz-adv-x="365" 
d="M173 -10q-46 0 -74 13t-45 28q-17 14 -17 39q0 18 13.5 32t33.5 14q11 0 18 -2.5t17 -10.5t21.5 -13t32.5 -5q28 0 44 12.5t16 32.5q0 13 -9 24.5t-29 16.5q-31 9 -60 21t-51.5 31t-36 46t-13.5 65q0 30 11.5 55t32 43t48.5 28t62 10q39 0 67.5 -13t42.5 -26
q8 -8 12.5 -18t4.5 -21q0 -18 -13.5 -32t-33.5 -14q-11 0 -18 2.5t-17 10.5q-19 16 -45 16q-29 0 -43.5 -11t-14.5 -30q0 -17 8.5 -28t30.5 -17q36 -11 66 -23.5t51.5 -31t34 -44.5t12.5 -64q0 -29 -12 -53.5t-33 -43t-50.5 -29t-64.5 -10.5z" />
    <glyph glyph-name="t" unicode="t" horiz-adv-x="320" 
d="M246 -10q-36 0 -65 13.5t-49 36t-31 51.5t-11 59v215h-30q-20 0 -33.5 14t-13.5 34t13.5 33.5t33.5 13.5h30v80q0 21 14.5 35.5t35.5 14.5t35.5 -14.5t14.5 -35.5v-80h62q20 0 34 -13.5t14 -33.5t-14 -34t-34 -14h-62v-200q0 -35 17.5 -57.5t45.5 -22.5q21 0 34 -13.5
t13 -33.5t-14 -34t-40 -14z" />
    <glyph glyph-name="u" unicode="u" horiz-adv-x="470" 
d="M235 -10q-60 0 -105.5 31t-65.5 80q-8 19 -11 41t-3 43v235q0 21 14.5 35.5t35.5 14.5t35.5 -14.5t14.5 -35.5v-250q0 -39 23.5 -62t61.5 -23t61.5 23t23.5 62v250q0 21 14.5 35.5t35.5 14.5t35.5 -14.5t14.5 -35.5v-235q0 -21 -3 -43t-11 -41q-20 -49 -65.5 -80
t-105.5 -31z" />
    <glyph glyph-name="v" unicode="v" horiz-adv-x="394" 
d="M196 -10q-14 0 -27.5 8t-19.5 25l-141 380q-3 7 -3 19q0 23 14.5 35.5t34.5 12.5q15 0 28 -8.5t18 -24.5l58 -178q12 -37 20.5 -68t10.5 -51h10q2 20 9.5 51t21.5 68l64 178q6 16 18.5 24.5t27.5 8.5q20 0 34.5 -12.5t14.5 -35.5q0 -12 -3 -19l-141 -380
q-6 -16 -19.5 -24.5t-29.5 -8.5z" />
    <glyph glyph-name="w" unicode="w" horiz-adv-x="740" 
d="M640 470q21 0 35.5 -14.5t14.5 -35.5v-235q0 -21 -3 -43t-11 -41q-20 -49 -65.5 -80t-105.5 -31q-48 0 -80.5 20t-49.5 46h-10q-17 -26 -48 -46t-82 -20q-60 0 -105.5 31t-65.5 80q-8 19 -11 41t-3 43v235q0 21 14.5 35.5t35.5 14.5t35.5 -14.5t14.5 -35.5v-250
q0 -39 23.5 -62t61.5 -23t61.5 23t23.5 62v250q0 21 14.5 35.5t35.5 14.5t35.5 -14.5t14.5 -35.5v-250q0 -39 23.5 -62t61.5 -23t61.5 23t23.5 62v250q0 21 14.5 35.5t35.5 14.5z" />
    <glyph glyph-name="x" unicode="x" horiz-adv-x="460" 
d="M100 -10q-21 0 -35.5 14.5t-14.5 35.5v45q0 21 3 43t11 41q8 20 22 35t27 21v10q-12 7 -26.5 22t-22.5 34t-11 41t-3 43v45q0 21 14.5 35.5t35.5 14.5t35.5 -14.5t14.5 -35.5v-60q0 -39 21 -62t59 -23t59 23t21 62v60q0 21 14.5 35.5t35.5 14.5t35.5 -14.5t14.5 -35.5
v-45q0 -21 -3 -43t-11 -41t-23.5 -34.5t-25.5 -21.5v-10q10 -7 25.5 -22t23.5 -34t11 -41t3 -43v-45q0 -21 -14.5 -35.5t-35.5 -14.5t-35.5 14.5t-14.5 35.5v60q0 39 -21 62t-59 23t-59 -23t-21 -62v-60q0 -21 -14.5 -35.5t-35.5 -14.5z" />
    <glyph glyph-name="y" unicode="y" horiz-adv-x="470" 
d="M230 -240q-46 0 -79 15.5t-50 30.5q-17 14 -17 39q0 18 13.5 32t33.5 14t35 -13q10 -8 25.5 -15.5t38.5 -7.5q38 0 64 22.5t26 66.5v106h-10q-7 -25 -34 -42.5t-76 -17.5q-39 0 -67 12.5t-46.5 33.5t-27.5 48t-9 56v280q0 21 14.5 35.5t35.5 14.5t35.5 -14.5t14.5 -35.5
v-265q0 -70 80 -70q36 0 58.5 12t31.5 26v297q0 21 14.5 35.5t35.5 14.5t35.5 -14.5t14.5 -35.5v-461q0 -21 -3 -43t-11 -41q-23 -55 -69.5 -85t-106.5 -30z" />
    <glyph glyph-name="z" unicode="z" horiz-adv-x="405" 
d="M67 0q-20 0 -33.5 13.5t-13.5 33.5q0 14 6.5 25.5t14.5 22.5l189 270h-153q-20 0 -33.5 13.5t-13.5 33.5t13.5 34t33.5 14h240q20 0 35 -14t15 -34q0 -25 -16 -47l-189 -270h170q20 0 34 -14t14 -34t-14 -33.5t-34 -13.5h-265z" />
    <glyph glyph-name="braceleft" unicode="{" horiz-adv-x="330" 
d="M270 -120q-98 0 -139 62t-41 178v81q0 25 -7.5 35t-27.5 10q-22 0 -36 14t-14 35t14 35t36 14q20 0 27.5 10t7.5 35v81q0 116 41 178t139 62q21 0 35.5 -14.5t14.5 -35.5t-14.5 -35.5t-35.5 -14.5q-28 0 -43.5 -9.5t-22.5 -26.5t-8 -42.5t-1 -56.5v-77q0 -35 -15 -62.5
t-38 -35.5v-10q23 -10 38 -36.5t15 -61.5v-77q0 -32 1 -57t8 -42t22.5 -26.5t43.5 -9.5q21 0 35.5 -14.5t14.5 -35.5t-14.5 -35.5t-35.5 -14.5z" />
    <glyph glyph-name="bar" unicode="|" horiz-adv-x="225" 
d="M112 -50q-17 0 -29.5 12.5t-12.5 29.5v716q0 17 12.5 29.5t29.5 12.5t29.5 -12.5t12.5 -29.5v-716q0 -17 -12.5 -29.5t-29.5 -12.5z" />
    <glyph glyph-name="braceright" unicode="}" horiz-adv-x="330" 
d="M56 -120q-21 0 -35.5 14.5t-14.5 35.5t14.5 35.5t35.5 14.5q28 0 43.5 9.5t22.5 26.5t8 42t1 57v77q0 35 15 61.5t38 36.5v10q-23 8 -38 35.5t-15 62.5v77q0 31 -1 56.5t-8 42.5t-22.5 26.5t-43.5 9.5q-21 0 -35.5 14.5t-14.5 35.5t14.5 35.5t35.5 14.5q97 0 138.5 -62
t41.5 -178v-81q0 -25 7.5 -35t27.5 -10q22 0 36 -14t14 -35t-14 -35t-36 -14q-20 0 -27.5 -10t-7.5 -35v-81q0 -116 -41.5 -178t-138.5 -62z" />
    <glyph glyph-name="asciitilde" unicode="~" horiz-adv-x="540" 
d="M359 150q-36 0 -63 9.5t-47.5 21.5t-37.5 21.5t-33 9.5q-12 0 -22.5 -6t-21.5 -15q-14 -11 -33 -11q-22 0 -37 14t-15 36q0 17 10 32.5t27.5 27t41.5 18.5t52 7q36 0 63 -9.5t47.5 -21.5t37 -21.5t33.5 -9.5q12 0 22.5 6t21.5 15q14 11 33 11q22 0 37 -14t15 -36
q0 -16 -9.5 -31.5t-26.5 -27.5t-41 -19t-54 -7z" />
    <glyph glyph-name="uni00A0" unicode="&#xa0;" horiz-adv-x="240" 
 />
    <glyph glyph-name="exclamdown" unicode="&#xa1;" horiz-adv-x="225" 
d="M111 360q-26 0 -43 17t-17 43t17 43t43 17t43 -17t17 -43t-17 -43t-43 -17zM112 -240q-22 0 -37.5 15.5t-15.5 37.5v414q0 22 15.5 37.5t37.5 15.5t37 -15.5t15 -37.5v-414q0 -22 -15 -37.5t-37 -15.5z" />
    <glyph glyph-name="cent" unicode="&#xa2;" horiz-adv-x="420" 
d="M192 528q0 17 12.5 29.5t29.5 12.5t29.5 -12.5t12.5 -29.5v-67q33 -7 57.5 -20t33.5 -21q19 -17 19 -43q0 -20 -14.5 -35.5t-37.5 -15.5q-12 0 -19.5 2.5t-18.5 11.5q-7 5 -20 12v-204q13 7 20 12q11 9 18.5 11.5t19.5 2.5q23 0 37.5 -15.5t14.5 -35.5q0 -12 -5.5 -23.5
t-13.5 -19.5q-12 -11 -35.5 -23t-55.5 -18v-67q0 -17 -12.5 -29.5t-29.5 -12.5t-29.5 12.5t-12.5 29.5v68q-52 11 -89 44t-54 75q-8 20 -11 42t-3 44v10q0 22 3 44t11 42q17 42 54 75t89 44v68zM192 350q-22 -11 -34.5 -32.5t-12.5 -47.5v-40q0 -26 12 -47.5t35 -32.5v200z
" />
    <glyph glyph-name="sterling" unicode="&#xa3;" horiz-adv-x="540" 
d="M84 -90q-22 0 -37 14t-15 36q0 15 7.5 26t18.5 21.5t24.5 22t24.5 26t18.5 34.5t7.5 47q0 28 -3 49.5t-8 39.5h-63q-22 0 -36 14t-14 36t14 36.5t36 14.5h29q-6 21 -9.5 47t-3.5 61q0 39 15.5 74.5t43.5 62t66.5 42.5t84.5 16q49 0 90 -16t62 -39q8 -9 14 -19.5t6 -22.5
q0 -22 -16 -37t-38 -15q-19 0 -33 11q-13 11 -33 24.5t-59 13.5q-47 0 -74.5 -27t-27.5 -68q0 -34 5 -59.5t13 -48.5h120q22 0 36.5 -14.5t14.5 -36.5t-14.5 -36t-36.5 -14h-84q4 -16 6 -34t2 -40q0 -29 -11 -57t-28 -43v-10q28 -2 51 -6.5t44 -9.5t42 -9t45 -4q17 0 30 9
t26 20t33 11q22 0 37 -14t15 -36q0 -16 -10.5 -32.5t-29.5 -30t-45.5 -22t-57.5 -8.5q-36 0 -65.5 5t-55 11t-49 11t-48.5 5q-12 0 -22.5 -6t-21.5 -15q-14 -11 -33 -11z" />
    <glyph glyph-name="currency" unicode="&#xa4;" horiz-adv-x="570" 
d="M285 -10q-39 0 -74.5 11t-64.5 31l-28 -28q-12 -12 -29.5 -12.5t-29.5 12.5t-12 30t12 29l27 27q-22 29 -34 64.5t-12 75.5t12 75.5t34 64.5l-27 27q-12 12 -12 29t12 30t29.5 12.5t29.5 -12.5l28 -28q29 20 64.5 31t74.5 11t74.5 -11t64.5 -31l28 28q12 12 29.5 12.5
t29.5 -12.5t12 -30t-12 -29l-27 -27q22 -29 34 -64.5t12 -75.5t-12 -75.5t-34 -64.5l27 -27q12 -12 12 -29t-12 -30t-29.5 -12.5t-29.5 12.5l-28 28q-29 -20 -64.5 -31t-74.5 -11zM285 85q31 0 57.5 11t46 30.5t30.5 46t11 57.5t-11 57.5t-30.5 46t-46 30.5t-57.5 11
t-57.5 -11t-46 -30.5t-30.5 -46t-11 -57.5t11 -57.5t30.5 -46t46 -30.5t57.5 -11z" />
    <glyph glyph-name="yen" unicode="&#xa5;" horiz-adv-x="560" 
d="M278 -10q-22 0 -37 15.5t-15 37.5v82h-149q-22 0 -36 14t-14 36t14 36.5t36 14.5h149v60h-149q-22 0 -36 14t-14 36t14 36.5t36 14.5h107l-173 241q-10 15 -10 31q0 22 14.5 36.5t38.5 14.5q27 0 43 -22l182 -264l182 264q16 22 43 22q24 0 38.5 -14.5t14.5 -36.5
q0 -16 -10 -31l-173 -241h88q22 0 36.5 -14.5t14.5 -36.5t-14.5 -36t-36.5 -14h-131v-60h131q22 0 36.5 -14.5t14.5 -36.5t-14.5 -36t-36.5 -14h-131v-82q0 -22 -15.5 -37.5t-37.5 -15.5z" />
    <glyph glyph-name="brokenbar" unicode="&#xa6;" horiz-adv-x="225" 
d="M112 403q-17 0 -29.5 12.5t-12.5 29.5v263q0 17 12.5 29.5t29.5 12.5t29.5 -12.5t12.5 -29.5v-263q0 -17 -12.5 -29.5t-29.5 -12.5zM112 -50q-17 0 -29.5 12.5t-12.5 29.5v263q0 17 12.5 29.5t29.5 12.5t29.5 -12.5t12.5 -29.5v-263q0 -17 -12.5 -29.5t-29.5 -12.5z" />
    <glyph glyph-name="section" unicode="&#xa7;" horiz-adv-x="385" 
d="M172 -99q-39 0 -67.5 13t-42.5 26q-8 8 -12.5 18t-4.5 21q0 18 13.5 32t33.5 14q11 0 18 -2.5t17 -10.5q19 -16 45 -16q29 0 43.5 11t14.5 30q0 17 -8.5 28t-30.5 17q-36 10 -66 23t-51.5 31.5t-34 44.5t-12.5 64q0 30 13.5 56t36.5 45q-15 18 -24 41t-9 55q0 30 11.5 55
t32 43t48.5 28t62 10q39 0 67.5 -13t42.5 -26q8 -8 12.5 -18t4.5 -21q0 -18 -13.5 -32t-33.5 -14q-11 0 -18 2.5t-17 10.5q-19 16 -45 16q-29 0 -43.5 -11t-14.5 -30q0 -17 8.5 -28t30.5 -17q36 -11 66 -23.5t51.5 -31t34 -44.5t12.5 -64q0 -30 -13.5 -56t-37.5 -45
q16 -18 25 -41t9 -55q0 -30 -11.5 -55t-32 -43t-48.5 -28t-62 -10zM188 193q26 2 40.5 13.5t14.5 31.5q0 13 -9 24.5t-29 16.5q-13 3 -23 7q-26 -2 -40.5 -13.5t-14.5 -31.5q0 -13 9 -24.5t29 -16.5q13 -3 23 -7z" />
    <glyph glyph-name="dieresis" unicode="&#xa8;" horiz-adv-x="450" 
d="M315 530q-26 0 -43 17t-17 43t17 43t43 17t43 -17t17 -43t-17 -43t-43 -17zM135 530q-26 0 -43 17t-17 43t17 43t43 17t43 -17t17 -43t-17 -43t-43 -17z" />
    <glyph glyph-name="copyright" unicode="&#xa9;" horiz-adv-x="590" 
d="M295 -10q-81 0 -142.5 40.5t-91.5 108.5q-11 25 -16 56t-5 65v180q0 34 5 65t16 56q30 68 91 108.5t143 40.5q81 0 142.5 -40.5t91.5 -108.5q11 -25 16 -56t5 -65v-180q0 -34 -5 -65t-16 -56q-30 -68 -91 -108.5t-143 -40.5zM295 57q28 0 53 7.5t46 20.5t36.5 30.5
t24.5 36.5q10 20 14 45t4 54v198q0 29 -4 54.5t-14 45.5q-9 19 -24.5 36t-36.5 30t-46 20.5t-53 7.5t-53 -7.5t-46 -20.5t-36.5 -30t-24.5 -36q-10 -20 -14 -45.5t-4 -54.5v-198q0 -29 4 -54t14 -45q9 -19 24.5 -36.5t36.5 -30.5t46 -20.5t53 -7.5zM301 160q-30 0 -55 10.5
t-43.5 29.5t-29 45.5t-10.5 59.5v90q0 34 11 61t30 46t44 28.5t53 9.5q29 0 52.5 -9t34.5 -21q5 -5 9 -12.5t4 -15.5q0 -14 -10.5 -24.5t-26.5 -10.5q-11 0 -22 8q-5 4 -14.5 9.5t-26.5 5.5q-32 0 -48.5 -21.5t-16.5 -50.5v-95q0 -31 16.5 -52t48.5 -21q17 0 27 5.5t15 10.5
q10 7 24 7t25 -9.5t11 -25.5q0 -17 -14 -28q-15 -13 -37 -21.5t-51 -8.5z" />
    <glyph glyph-name="ordfeminine" unicode="&#xaa;" horiz-adv-x="334" 
d="M127 354q-19 0 -36.5 7t-31 20.5t-21.5 33t-8 43.5q0 48 34 80t91 32h42v18q0 35 -36 35q-11 0 -20 -2t-14 -7q-9 -8 -15 -10t-16 -2q-19 0 -31 12.5t-12 29.5q0 10 4.5 19.5t10.5 14.5q11 11 35.5 21.5t62.5 10.5q61 0 91 -33t30 -79v-199q0 -20 -12.5 -32.5
t-32.5 -12.5q-15 0 -27.5 11.5t-12.5 25.5h-10q-8 -17 -23 -27t-42 -10zM77 209q-20 0 -33.5 13.5t-13.5 33.5t13.5 34t33.5 14h172q20 0 34 -14t14 -34t-14 -33.5t-34 -13.5h-172zM153 440q15 0 26 6.5t18 17.5v29h-37q-23 0 -31.5 -8t-8.5 -20t9 -18.5t24 -6.5z" />
    <glyph glyph-name="guillemotleft" unicode="&#xab;" horiz-adv-x="416" 
d="M335 51q-27 0 -43 25l-69 116q-5 8 -8 15t-3 16t3 16t6 13l65 116q7 12 18.5 20t24.5 8q23 0 39.5 -14t16.5 -36q0 -14 -9 -28l-54 -92l56 -100q7 -12 7 -27q0 -21 -15 -34.5t-35 -13.5zM142 51q-27 0 -43 25l-69 116q-5 8 -8 15t-3 16t3 16t6 13l65 116q7 12 18.5 20
t24.5 8q23 0 39.5 -14t16.5 -36q0 -14 -9 -28l-54 -92l56 -100q7 -12 7 -27q0 -21 -15 -34.5t-35 -13.5z" />
    <glyph glyph-name="logicalnot" unicode="&#xac;" horiz-adv-x="540" 
d="M389 42q-22 0 -36 14.5t-14 36.5v93h-212q-22 0 -36 14t-14 36t14 36.5t36 14.5h232q37 0 59 -18.5t22 -62.5v-113q0 -22 -14.5 -36.5t-36.5 -14.5z" />
    <glyph glyph-name="uni00AD" unicode="&#xad;" horiz-adv-x="240" 
d="M70 209q-20 0 -33.5 13.5t-13.5 33.5t13.5 34t33.5 14h100q20 0 34 -14t14 -34t-14 -33.5t-34 -13.5h-100z" />
    <glyph glyph-name="registered" unicode="&#xae;" horiz-adv-x="590" 
d="M295 -10q-81 0 -142.5 40.5t-91.5 108.5q-11 25 -16 56t-5 65v180q0 34 5 65t16 56q30 68 91 108.5t143 40.5q81 0 142.5 -40.5t91.5 -108.5q11 -25 16 -56t5 -65v-180q0 -34 -5 -65t-16 -56q-30 -68 -91 -108.5t-143 -40.5zM215 165q-14 0 -25 11t-11 25v302
q0 16 10 26.5t26 10.5h78q25 0 46.5 -8t37.5 -23t25.5 -36t9.5 -47q0 -35 -17 -58.5t-37 -35.5l60 -115q1 -2 2.5 -7.5t1.5 -8.5q0 -16 -10.5 -26t-27.5 -10q-9 0 -18 5t-14 16l-65 126h-35v-111q0 -14 -10.5 -25t-26.5 -11zM295 382q19 0 31.5 11.5t12.5 32.5t-11 32.5
t-30 11.5h-46v-88h43zM295 57q28 0 53 7.5t46 20.5t36.5 30.5t24.5 36.5q10 20 14 45t4 54v198q0 29 -4 54.5t-14 45.5q-9 19 -24.5 36t-36.5 30t-46 20.5t-53 7.5t-53 -7.5t-46 -20.5t-36.5 -30t-24.5 -36q-10 -20 -14 -45.5t-4 -54.5v-198q0 -29 4 -54t14 -45
q9 -19 24.5 -36.5t36.5 -30.5t46 -20.5t53 -7.5z" />
    <glyph glyph-name="macron" unicode="&#xaf;" horiz-adv-x="450" 
d="M135 544q-20 0 -33.5 13.5t-13.5 33.5t13.5 34t33.5 14h180q20 0 34 -14t14 -34t-14 -33.5t-34 -13.5h-180z" />
    <glyph glyph-name="degree" unicode="&#xb0;" horiz-adv-x="290" 
d="M145 460q-26 0 -48.5 10t-39.5 27t-27 39.5t-10 48.5t10 48.5t27 39.5t39.5 27t48.5 10t48.5 -10t39.5 -27t27 -39.5t10 -48.5t-10 -48.5t-27 -39.5t-39.5 -27t-48.5 -10zM145 525q25 0 42.5 17.5t17.5 42.5t-17.5 42.5t-42.5 17.5t-42.5 -17.5t-17.5 -42.5t17.5 -42.5
t42.5 -17.5z" />
    <glyph glyph-name="plusminus" unicode="&#xb1;" horiz-adv-x="540" 
d="M269 131q-22 0 -36 14.5t-14 36.5v93h-92q-22 0 -36 14t-14 36t14 36.5t36 14.5h92v91q0 22 14 36t36 14t36.5 -14t14.5 -36v-91h92q22 0 36.5 -14.5t14.5 -36.5t-14.5 -36t-36.5 -14h-92v-93q0 -22 -14.5 -36.5t-36.5 -14.5zM127 0q-22 0 -36 14t-14 36t14 36.5t36 14.5
h285q22 0 36.5 -14.5t14.5 -36.5t-14.5 -36t-36.5 -14h-285z" />
    <glyph glyph-name="uni00B2" unicode="&#xb2;" horiz-adv-x="418" 
d="M68 193q-19 0 -31 12t-12 31q0 22 18 40l123 124q20 20 37.5 38t31 36t21 37t7.5 42q0 29 -19.5 48t-48.5 19q-26 0 -40 -9.5t-23 -17.5q-12 -9 -31 -9q-20 0 -33 12.5t-13 32.5q0 10 5 19t11 17q17 19 50 32t74 13q33 0 62 -11t50.5 -31.5t34 -49.5t12.5 -65
q0 -33 -9.5 -60t-26 -52t-39 -48.5t-47.5 -48.5l-61 -61h156q18 0 31.5 -12.5t13.5 -32.5t-13.5 -32.5t-31.5 -12.5h-259z" />
    <glyph glyph-name="uni00B3" unicode="&#xb3;" horiz-adv-x="388" 
d="M175 186q-51 0 -81.5 13t-50.5 35q-8 8 -13 17.5t-5 20.5q0 18 13 32t33 14q8 0 16.5 -3.5t13.5 -8.5q13 -13 27 -21.5t47 -8.5q32 0 54 21t22 52q0 32 -20.5 53t-52.5 21h-54q-20 0 -32.5 13.5t-12.5 31.5q0 20 12.5 32.5t32.5 12.5h54q24 0 38.5 14.5t14.5 38.5
q0 23 -17 38.5t-40 15.5q-25 0 -37.5 -9t-21.5 -17q-13 -10 -30 -10q-20 0 -33.5 12.5t-13.5 32.5q0 11 4.5 20t12.5 17q17 18 46 31t73 13q31 0 58.5 -10t48 -28.5t32.5 -44.5t12 -57q0 -20 -6 -36t-14.5 -28t-18 -20t-17.5 -11v-10q12 -5 25 -15t24.5 -25t19 -35t7.5 -44
q0 -35 -13.5 -64.5t-36.5 -50.5t-54 -33t-66 -12z" />
    <glyph glyph-name="acute" unicode="&#xb4;" horiz-adv-x="450" 
d="M239 512q-18 0 -32.5 13.5t-14.5 33.5q0 19 11 32l64 76q14 17 37 17q19 0 33.5 -13.5t14.5 -32.5q0 -17 -12 -32l-64 -77q-14 -17 -37 -17z" />
    <glyph glyph-name="mu" unicode="&#xb5;" horiz-adv-x="470" 
d="M6 -240q-26 0 -40 14t-14 34t13 33.5t34 13.5q20 0 35.5 17.5t15.5 52.5v495q0 21 14.5 35.5t35.5 14.5t35.5 -14.5t14.5 -35.5v-260q0 -35 19.5 -55t56.5 -20q39 0 62 14.5t32 28.5v292q0 21 14.5 35.5t35.5 14.5t35.5 -14.5t14.5 -35.5v-380q0 -21 -14.5 -35.5
t-35.5 -14.5t-35.5 14.5t-14.5 35.5v15h-10q-8 -27 -35 -46t-80 -19q-24 0 -45 6v-86q0 -29 -9 -56t-27 -48t-45 -33.5t-63 -12.5z" />
    <glyph glyph-name="mu" unicode="&#x3bc;" horiz-adv-x="470" 
d="M6 -240q-26 0 -40 14t-14 34t13 33.5t34 13.5q20 0 35.5 17.5t15.5 52.5v495q0 21 14.5 35.5t35.5 14.5t35.5 -14.5t14.5 -35.5v-260q0 -35 19.5 -55t56.5 -20q39 0 62 14.5t32 28.5v292q0 21 14.5 35.5t35.5 14.5t35.5 -14.5t14.5 -35.5v-380q0 -21 -14.5 -35.5
t-35.5 -14.5t-35.5 14.5t-14.5 35.5v15h-10q-8 -27 -35 -46t-80 -19q-24 0 -45 6v-86q0 -29 -9 -56t-27 -48t-45 -33.5t-63 -12.5z" />
    <glyph glyph-name="paragraph" unicode="&#xb6;" horiz-adv-x="570" 
d="M468 -240q-22 0 -37.5 15.5t-15.5 37.5v787h-47v-415q0 -21 -3 -43t-11 -41q-20 -49 -66 -80t-110 -31q-46 0 -75.5 14t-45.5 28q-17 15 -17 39q0 20 14.5 35t34.5 15q11 0 18 -2.5t17 -10.5t22.5 -13t31.5 -5q38 0 61.5 23t23.5 62v90h-17q-45 0 -86.5 15t-73 43.5
t-50 68.5t-18.5 90q0 49 18.5 89.5t50 69t73 44t86.5 15.5h222q28 0 40 -15.5t12 -37.5v-834q0 -22 -15 -37.5t-37 -15.5z" />
    <glyph glyph-name="periodcentered" unicode="&#xb7;" horiz-adv-x="200" 
d="M100 210q-26 0 -43 17t-17 43t17 43t43 17t43 -17t17 -43t-17 -43t-43 -17z" />
    <glyph glyph-name="cedilla" unicode="&#xb8;" horiz-adv-x="390" 
d="M206 -240q-22 0 -36.5 6.5t-22.5 14.5q-9 9 -9 23q0 11 8 19.5t20 8.5q8 0 12 -1t10 -6q3 -2 7.5 -4.5t10.5 -2.5q14 0 22.5 8.5t8.5 22.5v9q0 14 -8.5 22.5t-22.5 8.5q-6 0 -10.5 -2.5t-7.5 -4.5q-6 -5 -10 -6t-12 -1q-12 0 -20 8.5t-8 17.5t3.5 16t8.5 15l52 81l38 -20
l-30 -46q40 -2 64 -27t24 -58v-17q0 -34 -23.5 -59.5t-68.5 -25.5z" />
    <glyph glyph-name="uni00B9" unicode="&#xb9;" horiz-adv-x="398" 
d="M101 193q-20 0 -32.5 12.5t-12.5 32.5t12.5 32.5t32.5 12.5h63v178q0 13 2.5 30t4.5 25h-10q-7 -11 -25.5 -21.5t-46.5 -10.5q-25 0 -37 14t-12 31q0 19 12 31.5t32 12.5q30 0 49 22t19 57q0 29 15.5 43.5t39.5 14.5q23 0 37 -14t14 -33v-380h63q20 0 32.5 -12.5
t12.5 -32.5t-12.5 -32.5t-32.5 -12.5h-220z" />
    <glyph glyph-name="ordmasculine" unicode="&#xba;" horiz-adv-x="335" 
d="M167 354q-45 0 -79 23.5t-49 60.5q-6 14 -8.5 30.5t-2.5 31.5v63q0 16 2.5 32.5t8.5 30.5q15 37 49 60.5t79 23.5t79.5 -23.5t49.5 -60.5q6 -14 8.5 -30.5t2.5 -32.5v-63q0 -15 -2.5 -31.5t-8.5 -30.5q-15 -37 -49.5 -60.5t-79.5 -23.5zM75 209q-20 0 -33.5 13.5
t-13.5 33.5t13.5 34t33.5 14h184q20 0 34 -14t14 -34t-14 -33.5t-34 -13.5h-184zM167 440q22 0 36 13.5t14 36.5v84q0 23 -14 36t-36 13t-35.5 -13t-13.5 -36v-84q0 -23 13.5 -36.5t35.5 -13.5z" />
    <glyph glyph-name="guillemotright" unicode="&#xbb;" horiz-adv-x="416" 
d="M273 51q-20 0 -35 13.5t-15 34.5q0 15 7 27l56 100l-54 92q-9 14 -9 28q0 22 16.5 36t39.5 14q13 0 24.5 -8t18.5 -20l65 -116q3 -6 6 -13t3 -16t-3 -16t-8 -15l-69 -116q-16 -25 -43 -25zM80 51q-20 0 -35 13.5t-15 34.5q0 15 7 27l56 100l-54 92q-9 14 -9 28
q0 22 16.5 36t39.5 14q13 0 24.5 -8t18.5 -20l65 -116q3 -6 6 -13t3 -16t-3 -16t-8 -15l-69 -116q-16 -25 -43 -25z" />
    <glyph glyph-name="onequarter" unicode="&#xbc;" horiz-adv-x="980" 
d="M101 193q-20 0 -32.5 12.5t-12.5 32.5t12.5 32.5t32.5 12.5h63v178q0 13 2.5 30t4.5 25h-10q-7 -11 -25.5 -21.5t-46.5 -10.5q-25 0 -37 14t-12 31q0 19 12 31.5t32 12.5q30 0 49 22t19 57q0 29 15.5 43.5t39.5 14.5q23 0 37 -14t14 -33v-380h63q20 0 32.5 -12.5
t12.5 -32.5t-12.5 -32.5t-32.5 -12.5h-220zM373 -8q-18 6 -27 23.5t-3 36.5l205 625q6 18 23 27t37 3q18 -5 27 -23t3 -37l-205 -625q-6 -18 -23 -27.5t-37 -2.5zM787 -10q-19 0 -32.5 14t-13.5 33v78h-133q-20 0 -32.5 12.5t-12.5 32.5q0 17 10 35l145 289q7 14 17.5 22
t24.5 8q18 0 32 -11.5t14 -31.5q0 -5 -1 -11t-3 -8l-124 -247h63v48q0 19 13.5 33t32.5 14t33 -14t14 -33v-48h51q20 0 32.5 -13.5t12.5 -31.5q0 -20 -12.5 -32.5t-32.5 -12.5h-51v-78q0 -19 -14 -33t-33 -14z" />
    <glyph glyph-name="onehalf" unicode="&#xbd;" horiz-adv-x="980" 
d="M101 193q-20 0 -32.5 12.5t-12.5 32.5t12.5 32.5t32.5 12.5h63v178q0 13 2.5 30t4.5 25h-10q-7 -11 -25.5 -21.5t-46.5 -10.5q-25 0 -37 14t-12 31q0 19 12 31.5t32 12.5q30 0 49 22t19 57q0 29 15.5 43.5t39.5 14.5q23 0 37 -14t14 -33v-380h63q20 0 32.5 -12.5
t12.5 -32.5t-12.5 -32.5t-32.5 -12.5h-220zM373 -8q-18 6 -27 23.5t-3 36.5l205 625q6 18 23 27t37 3q18 -5 27 -23t3 -37l-205 -625q-6 -18 -23 -27.5t-37 -2.5zM648 0q-19 0 -31 12t-12 31q0 22 18 40l123 124q20 20 37.5 38t31 36t21 37t7.5 42q0 29 -19.5 48t-48.5 19
q-26 0 -40 -9.5t-23 -17.5q-12 -9 -31 -9q-20 0 -33 12.5t-13 32.5q0 10 5 19t11 17q17 19 50 32t74 13q33 0 62 -11t50.5 -31.5t34 -49.5t12.5 -65q0 -33 -9.5 -60t-26 -52t-39 -48.5t-47.5 -48.5l-61 -61h156q18 0 31.5 -12.5t13.5 -32.5t-13.5 -32.5t-31.5 -12.5h-259z
" />
    <glyph glyph-name="threequarters" unicode="&#xbe;" horiz-adv-x="960" 
d="M175 186q-51 0 -81.5 13t-50.5 35q-8 8 -13 17.5t-5 20.5q0 18 13 32t33 14q8 0 16.5 -3.5t13.5 -8.5q13 -13 27 -21.5t47 -8.5q32 0 54 21t22 52q0 32 -20.5 53t-52.5 21h-54q-20 0 -32.5 13.5t-12.5 31.5q0 20 12.5 32.5t32.5 12.5h54q24 0 38.5 14.5t14.5 38.5
q0 23 -17 38.5t-40 15.5q-25 0 -37.5 -9t-21.5 -17q-13 -10 -30 -10q-20 0 -33.5 12.5t-13.5 32.5q0 11 4.5 20t12.5 17q17 18 46 31t73 13q31 0 58.5 -10t48 -28.5t32.5 -44.5t12 -57q0 -20 -6 -36t-14.5 -28t-18 -20t-17.5 -11v-10q12 -5 25 -15t24.5 -25t19 -35t7.5 -44
q0 -35 -13.5 -64.5t-36.5 -50.5t-54 -33t-66 -12zM363 -8q-18 6 -27 23.5t-3 36.5l205 625q6 18 23 27t37 3q18 -5 27 -23t3 -37l-205 -625q-6 -18 -23 -27.5t-37 -2.5zM777 -10q-19 0 -32.5 14t-13.5 33v78h-133q-20 0 -32.5 12.5t-12.5 32.5q0 17 10 35l145 289
q7 14 17.5 22t24.5 8q18 0 32 -11.5t14 -31.5q0 -5 -1 -11t-3 -8l-124 -247h63v48q0 19 13.5 33t32.5 14t33 -14t14 -33v-48h51q20 0 32.5 -13.5t12.5 -31.5q0 -20 -12.5 -32.5t-32.5 -12.5h-51v-78q0 -19 -14 -33t-33 -14z" />
    <glyph glyph-name="questiondown" unicode="&#xbf;" horiz-adv-x="378" 
d="M190 360q-26 0 -43 17t-17 43t17 43t43 17t43 -17t17 -43t-17 -43t-43 -17zM200 -240q-38 0 -71 13t-57 36t-38 53.5t-14 66.5q0 40 14.5 70.5t39 52.5t56 37.5t65.5 26.5q14 5 28 18t14 38q0 19 -12.5 31t-34.5 12q-16 0 -26 -6.5t-17 -11.5q-14 -11 -33 -11
q-23 0 -37.5 14t-14.5 37q0 24 20 42q42 38 108 38q31 0 58.5 -11.5t48 -31t32.5 -46t12 -56.5q0 -36 -13 -63.5t-35.5 -47.5t-51.5 -34t-62 -24q-20 -6 -38.5 -22.5t-18.5 -51.5q0 -32 23.5 -49.5t54.5 -17.5q23 0 39.5 7t25.5 15q13 11 33 11q21 0 36 -15t15 -36
q0 -11 -5 -22t-13 -19q-17 -17 -50.5 -30t-80.5 -13z" />
    <glyph glyph-name="Agrave" unicode="&#xc0;" 
d="M455 310v135q0 24 -3.5 46.5t-11.5 39.5q-16 32 -51.5 55.5t-83.5 23.5t-83.5 -23.5t-51.5 -55.5q-8 -17 -11.5 -39.5t-3.5 -46.5v-135h300zM102 -10q-22 0 -37 15.5t-15 37.5v397q0 34 5 65t16 56q30 68 91 108.5t143 40.5q81 0 142.5 -40.5t91.5 -108.5q11 -25 16 -56
t5 -65v-397q0 -22 -15 -37.5t-37 -15.5t-37.5 15.5t-15.5 37.5v167h-300v-167q0 -22 -15.5 -37.5t-37.5 -15.5zM338 752q-23 0 -37 17l-64 77q-12 15 -12 32q0 19 14.5 32.5t33.5 13.5q23 0 37 -17l64 -76q11 -13 11 -32q0 -20 -14.5 -33.5t-32.5 -13.5z" />
    <glyph glyph-name="Aacute" unicode="&#xc1;" 
d="M455 310v135q0 24 -3.5 46.5t-11.5 39.5q-16 32 -51.5 55.5t-83.5 23.5t-83.5 -23.5t-51.5 -55.5q-8 -17 -11.5 -39.5t-3.5 -46.5v-135h300zM102 -10q-22 0 -37 15.5t-15 37.5v397q0 34 5 65t16 56q30 68 91 108.5t143 40.5q81 0 142.5 -40.5t91.5 -108.5q11 -25 16 -56
t5 -65v-397q0 -22 -15 -37.5t-37 -15.5t-37.5 15.5t-15.5 37.5v167h-300v-167q0 -22 -15.5 -37.5t-37.5 -15.5zM272 752q-18 0 -32.5 13.5t-14.5 33.5q0 19 11 32l64 76q14 17 37 17q19 0 33.5 -13.5t14.5 -32.5q0 -17 -12 -32l-64 -77q-14 -17 -37 -17z" />
    <glyph glyph-name="Acircumflex" unicode="&#xc2;" 
d="M455 310v135q0 24 -3.5 46.5t-11.5 39.5q-16 32 -51.5 55.5t-83.5 23.5t-83.5 -23.5t-51.5 -55.5q-8 -17 -11.5 -39.5t-3.5 -46.5v-135h300zM102 -10q-22 0 -37 15.5t-15 37.5v397q0 34 5 65t16 56q30 68 91 108.5t143 40.5q81 0 142.5 -40.5t91.5 -108.5q11 -25 16 -56
t5 -65v-397q0 -22 -15 -37.5t-37 -15.5t-37.5 15.5t-15.5 37.5v167h-300v-167q0 -22 -15.5 -37.5t-37.5 -15.5zM215 746q-17 0 -29 12.5t-12 30.5q0 8 3 16t8 13l82 86q7 7 16.5 12.5t21.5 5.5q22 0 38 -18l82 -86q5 -5 8 -13t3 -16q0 -18 -12 -30.5t-29 -12.5
q-11 0 -19 4.5t-16 11.5l-54 50l-56 -50q-8 -7 -16 -11.5t-19 -4.5z" />
    <glyph glyph-name="Atilde" unicode="&#xc3;" 
d="M455 310v135q0 24 -3.5 46.5t-11.5 39.5q-16 32 -51.5 55.5t-83.5 23.5t-83.5 -23.5t-51.5 -55.5q-8 -17 -11.5 -39.5t-3.5 -46.5v-135h300zM102 -10q-22 0 -37 15.5t-15 37.5v397q0 34 5 65t16 56q30 68 91 108.5t143 40.5q81 0 142.5 -40.5t91.5 -108.5q11 -25 16 -56
t5 -65v-397q0 -22 -15 -37.5t-37 -15.5t-37.5 15.5t-15.5 37.5v167h-300v-167q0 -22 -15.5 -37.5t-37.5 -15.5zM367 749q-26 0 -44.5 6.5t-33 15t-26 15t-23.5 6.5q-7 0 -12 -3.5t-11 -8.5q-13 -10 -31 -10q-20 0 -33 12.5t-13 32.5q0 27 28.5 48t73.5 21q25 0 44 -6.5
t33.5 -15t26 -15t22.5 -6.5q8 0 13.5 3.5t11.5 8.5q12 10 29 10q20 0 33.5 -12.5t13.5 -32.5q0 -26 -27.5 -47.5t-74.5 -21.5z" />
    <glyph glyph-name="Adieresis" unicode="&#xc4;" 
d="M455 310v135q0 24 -3.5 46.5t-11.5 39.5q-16 32 -51.5 55.5t-83.5 23.5t-83.5 -23.5t-51.5 -55.5q-8 -17 -11.5 -39.5t-3.5 -46.5v-135h300zM102 -10q-22 0 -37 15.5t-15 37.5v397q0 34 5 65t16 56q30 68 91 108.5t143 40.5q81 0 142.5 -40.5t91.5 -108.5q11 -25 16 -56
t5 -65v-397q0 -22 -15 -37.5t-37 -15.5t-37.5 15.5t-15.5 37.5v167h-300v-167q0 -22 -15.5 -37.5t-37.5 -15.5zM393 743q-26 0 -43 17t-17 43t17 43t43 17t43 -17t17 -43t-17 -43t-43 -17zM213 743q-26 0 -43 17t-17 43t17 43t43 17t43 -17t17 -43t-17 -43t-43 -17z" />
    <glyph glyph-name="Aring" unicode="&#xc5;" 
d="M455 310v135q0 24 -3.5 46.5t-11.5 39.5q-16 32 -51.5 55.5t-83.5 23.5t-83.5 -23.5t-51.5 -55.5q-8 -17 -11.5 -39.5t-3.5 -46.5v-135h300zM102 -10q-22 0 -37 15.5t-15 37.5v397q0 34 5 65t16 56q30 68 91 108.5t143 40.5q81 0 142.5 -40.5t91.5 -108.5q11 -25 16 -56
t5 -65v-397q0 -22 -15 -37.5t-37 -15.5t-37.5 15.5t-15.5 37.5v167h-300v-167q0 -22 -15.5 -37.5t-37.5 -15.5zM305 758q-40 0 -68 28t-28 68t28 68t68 28t68 -28t28 -68t-28 -68t-68 -28zM305 808q19 0 32.5 13.5t13.5 32.5t-13.5 32.5t-32.5 13.5t-32.5 -13.5t-13.5 -32.5
t13.5 -32.5t32.5 -13.5z" />
    <glyph glyph-name="AE" unicode="&#xc6;" horiz-adv-x="690" 
d="M102 -10q-22 0 -37 15.5t-15 37.5v387q0 34 5 65t16 56q30 68 94.5 108.5t149.5 40.5h284q21 0 35.5 -14.5t14.5 -35.5t-14.5 -35.5t-35.5 -14.5h-179v-195h139q21 0 35.5 -14.5t14.5 -35.5t-14.5 -35.5t-35.5 -14.5h-139v-205h189q21 0 35.5 -14.5t14.5 -35.5
t-14.5 -35.5t-35.5 -14.5h-239q-23 0 -39 15t-16 38v252h-160v-262q0 -22 -15.5 -37.5t-37.5 -15.5zM315 405v195q-54 0 -91.5 -23.5t-53.5 -55.5q-8 -17 -11.5 -39.5t-3.5 -46.5v-30h160z" />
    <glyph glyph-name="Ccedilla" unicode="&#xc7;" horiz-adv-x="510" 
d="M276 -240q-22 0 -36.5 6.5t-22.5 14.5q-9 9 -9 23q0 11 8 19.5t20 8.5q8 0 12 -1t10 -6q3 -2 7.5 -4.5t10.5 -2.5q14 0 22.5 8.5t8.5 22.5v9q0 14 -8.5 22.5t-22.5 8.5q-6 0 -10.5 -2.5t-7.5 -4.5q-6 -5 -10 -6t-12 -1q-12 0 -20 8.5t-8 17.5t3.5 16t8.5 15l39 60
q-69 9 -120.5 48t-77.5 99q-11 25 -16 56t-5 65v180q0 34 5 65t16 56q30 68 91 108.5t143 40.5q54 0 96.5 -16t63.5 -39q8 -9 14 -19.5t6 -22.5q0 -21 -15.5 -35t-37.5 -14q-19 0 -33 11q-12 9 -33.5 22t-60.5 13q-48 0 -83.5 -23.5t-51.5 -55.5q-8 -17 -11.5 -39.5
t-3.5 -46.5v-190q0 -24 3.5 -46.5t11.5 -39.5q16 -32 51.5 -55.5t83.5 -23.5q39 0 63.5 13t35.5 22q14 11 33 11q22 0 37 -14t15 -36q0 -23 -20 -40q-27 -23 -64 -38.5t-87 -17.5l-28 -43q40 -2 64 -27t24 -58v-17q0 -34 -23.5 -59.5t-68.5 -25.5z" />
    <glyph glyph-name="Egrave" unicode="&#xc8;" horiz-adv-x="490" 
d="M268 -10q-47 0 -88 14.5t-72.5 41t-49.5 64t-18 84.5q0 33 8.5 59.5t22.5 47.5t32 36.5t36 24.5v10q-16 9 -30.5 24t-26 34.5t-18 42t-6.5 46.5q0 42 17 77t45.5 60.5t67 39.5t81.5 14q58 0 97.5 -16.5t62.5 -42.5q8 -9 14 -19.5t6 -22.5q0 -22 -15 -36t-37 -14
q-20 0 -33 11q-15 13 -35.5 26.5t-59.5 13.5q-23 0 -42.5 -7.5t-33.5 -21t-22 -31t-8 -36.5q0 -41 28.5 -70.5t72.5 -29.5h107q21 0 35.5 -14.5t14.5 -35.5t-14.5 -35.5t-35.5 -14.5h-107q-53 0 -86 -32t-33 -83t35 -80t88 -29q25 0 42.5 3.5t29.5 9.5t21.5 14.5t20.5 18.5
q7 7 16.5 10.5t18.5 3.5q22 0 36.5 -15.5t14.5 -36.5q0 -12 -6.5 -23t-14.5 -20q-14 -15 -31 -27t-38.5 -20.5t-48.5 -13t-61 -4.5zM278 752q-23 0 -37 17l-64 77q-12 15 -12 32q0 19 14.5 32.5t33.5 13.5q23 0 37 -17l64 -76q11 -13 11 -32q0 -20 -14.5 -33.5t-32.5 -13.5z
" />
    <glyph glyph-name="Eacute" unicode="&#xc9;" horiz-adv-x="490" 
d="M268 -10q-47 0 -88 14.5t-72.5 41t-49.5 64t-18 84.5q0 33 8.5 59.5t22.5 47.5t32 36.5t36 24.5v10q-16 9 -30.5 24t-26 34.5t-18 42t-6.5 46.5q0 42 17 77t45.5 60.5t67 39.5t81.5 14q58 0 97.5 -16.5t62.5 -42.5q8 -9 14 -19.5t6 -22.5q0 -22 -15 -36t-37 -14
q-20 0 -33 11q-15 13 -35.5 26.5t-59.5 13.5q-23 0 -42.5 -7.5t-33.5 -21t-22 -31t-8 -36.5q0 -41 28.5 -70.5t72.5 -29.5h107q21 0 35.5 -14.5t14.5 -35.5t-14.5 -35.5t-35.5 -14.5h-107q-53 0 -86 -32t-33 -83t35 -80t88 -29q25 0 42.5 3.5t29.5 9.5t21.5 14.5t20.5 18.5
q7 7 16.5 10.5t18.5 3.5q22 0 36.5 -15.5t14.5 -36.5q0 -12 -6.5 -23t-14.5 -20q-14 -15 -31 -27t-38.5 -20.5t-48.5 -13t-61 -4.5zM213 752q-18 0 -32.5 13.5t-14.5 33.5q0 19 11 32l64 76q14 17 37 17q19 0 33.5 -13.5t14.5 -32.5q0 -17 -12 -32l-64 -77q-14 -17 -37 -17z
" />
    <glyph glyph-name="Ecircumflex" unicode="&#xca;" horiz-adv-x="490" 
d="M268 -10q-47 0 -88 14.5t-72.5 41t-49.5 64t-18 84.5q0 33 8.5 59.5t22.5 47.5t32 36.5t36 24.5v10q-16 9 -30.5 24t-26 34.5t-18 42t-6.5 46.5q0 42 17 77t45.5 60.5t67 39.5t81.5 14q58 0 97.5 -16.5t62.5 -42.5q8 -9 14 -19.5t6 -22.5q0 -22 -15 -36t-37 -14
q-20 0 -33 11q-15 13 -35.5 26.5t-59.5 13.5q-23 0 -42.5 -7.5t-33.5 -21t-22 -31t-8 -36.5q0 -41 28.5 -70.5t72.5 -29.5h107q21 0 35.5 -14.5t14.5 -35.5t-14.5 -35.5t-35.5 -14.5h-107q-53 0 -86 -32t-33 -83t35 -80t88 -29q25 0 42.5 3.5t29.5 9.5t21.5 14.5t20.5 18.5
q7 7 16.5 10.5t18.5 3.5q22 0 36.5 -15.5t14.5 -36.5q0 -12 -6.5 -23t-14.5 -20q-14 -15 -31 -27t-38.5 -20.5t-48.5 -13t-61 -4.5zM155 746q-17 0 -29 12.5t-12 30.5q0 8 3 16t8 13l82 86q7 7 16.5 12.5t21.5 5.5q22 0 38 -18l82 -86q5 -5 8 -13t3 -16q0 -18 -12 -30.5
t-29 -12.5q-11 0 -19 4.5t-16 11.5l-54 50l-56 -50q-8 -7 -16 -11.5t-19 -4.5z" />
    <glyph glyph-name="Edieresis" unicode="&#xcb;" horiz-adv-x="490" 
d="M268 -10q-47 0 -88 14.5t-72.5 41t-49.5 64t-18 84.5q0 33 8.5 59.5t22.5 47.5t32 36.5t36 24.5v10q-16 9 -30.5 24t-26 34.5t-18 42t-6.5 46.5q0 42 17 77t45.5 60.5t67 39.5t81.5 14q58 0 97.5 -16.5t62.5 -42.5q8 -9 14 -19.5t6 -22.5q0 -22 -15 -36t-37 -14
q-20 0 -33 11q-15 13 -35.5 26.5t-59.5 13.5q-23 0 -42.5 -7.5t-33.5 -21t-22 -31t-8 -36.5q0 -41 28.5 -70.5t72.5 -29.5h107q21 0 35.5 -14.5t14.5 -35.5t-14.5 -35.5t-35.5 -14.5h-107q-53 0 -86 -32t-33 -83t35 -80t88 -29q25 0 42.5 3.5t29.5 9.5t21.5 14.5t20.5 18.5
q7 7 16.5 10.5t18.5 3.5q22 0 36.5 -15.5t14.5 -36.5q0 -12 -6.5 -23t-14.5 -20q-14 -15 -31 -27t-38.5 -20.5t-48.5 -13t-61 -4.5zM335 770q-26 0 -43 17t-17 43t17 43t43 17t43 -17t17 -43t-17 -43t-43 -17zM155 770q-26 0 -43 17t-17 43t17 43t43 17t43 -17t17 -43
t-17 -43t-43 -17z" />
    <glyph glyph-name="Igrave" unicode="&#xcc;" horiz-adv-x="225" 
d="M112 -10q-22 0 -37 15.5t-15 37.5v614q0 22 15 37.5t37 15.5t37.5 -15.5t15.5 -37.5v-614q0 -22 -15.5 -37.5t-37.5 -15.5zM113 741q-23 0 -37 17l-64 77q-12 15 -12 32q0 19 14.5 32.5t33.5 13.5q23 0 37 -17l64 -76q11 -13 11 -32q0 -20 -14.5 -33.5t-32.5 -13.5z" />
    <glyph glyph-name="Iacute" unicode="&#xcd;" horiz-adv-x="225" 
d="M112 -10q-22 0 -37 15.5t-15 37.5v614q0 22 15 37.5t37 15.5t37.5 -15.5t15.5 -37.5v-614q0 -22 -15.5 -37.5t-37.5 -15.5zM129 741q-18 0 -32.5 13.5t-14.5 33.5q0 19 11 32l64 76q14 17 37 17q19 0 33.5 -13.5t14.5 -32.5q0 -17 -12 -32l-64 -77q-14 -17 -37 -17z" />
    <glyph glyph-name="Icircumflex" unicode="&#xce;" horiz-adv-x="225" 
d="M112 -10q-22 0 -37 15.5t-15 37.5v614q0 22 15 37.5t37 15.5t37.5 -15.5t15.5 -37.5v-614q0 -22 -15.5 -37.5t-37.5 -15.5zM22 738q-17 0 -29 12.5t-12 30.5q0 8 3 16t8 13l82 86q7 7 16.5 12.5t21.5 5.5q22 0 38 -18l82 -86q5 -5 8 -13t3 -16q0 -18 -12 -30.5t-29 -12.5
q-11 0 -19 4.5t-16 11.5l-54 50l-56 -50q-8 -7 -16 -11.5t-19 -4.5z" />
    <glyph glyph-name="Idieresis" unicode="&#xcf;" horiz-adv-x="225" 
d="M112 -10q-22 0 -37 15.5t-15 37.5v614q0 22 15 37.5t37 15.5t37.5 -15.5t15.5 -37.5v-614q0 -22 -15.5 -37.5t-37.5 -15.5zM207 743q-26 0 -43 17t-17 43t17 43t43 17t43 -17t17 -43t-17 -43t-43 -17zM27 743q-26 0 -43 17t-17 43t17 43t43 17t43 -17t17 -43t-17 -43
t-43 -17z" />
    <glyph glyph-name="Eth" unicode="&#xd0;" horiz-adv-x="560" 
d="M102 0q-26 0 -39 15.5t-13 37.5v243h-13q-22 0 -36 14t-14 36t14 36.5t36 14.5h13v250q0 22 14.5 37.5t37.5 15.5h163q81 0 142.5 -40.5t91.5 -108.5q11 -25 16 -56t5 -65v-160q0 -34 -5 -65t-16 -56q-30 -68 -91 -108.5t-143 -40.5h-163zM265 100q48 0 83.5 23.5
t51.5 55.5q8 17 11.5 39.5t3.5 46.5v170q0 24 -3.5 46.5t-11.5 39.5q-16 32 -51.5 55.5t-83.5 23.5h-110v-203h20q22 0 36.5 -14.5t14.5 -36.5t-14.5 -36t-36.5 -14h-20v-196h110z" />
    <glyph glyph-name="Ntilde" unicode="&#xd1;" 
d="M305 710q81 0 142.5 -40.5t91.5 -108.5q11 -25 16 -56t5 -65v-397q0 -22 -15 -37.5t-37 -15.5t-37.5 15.5t-15.5 37.5v402q0 24 -3.5 46.5t-11.5 39.5q-16 32 -51.5 55.5t-83.5 23.5t-83.5 -23.5t-51.5 -55.5q-8 -17 -11.5 -39.5t-3.5 -46.5v-402q0 -22 -15.5 -37.5
t-37.5 -15.5t-37 15.5t-15 37.5v397q0 34 5 65t16 56q30 68 91 108.5t143 40.5zM367 749q-26 0 -44.5 6.5t-33 15t-26 15t-23.5 6.5q-7 0 -12 -3.5t-11 -8.5q-13 -10 -31 -10q-20 0 -33 12.5t-13 32.5q0 27 28.5 48t73.5 21q25 0 44 -6.5t33.5 -15t26 -15t22.5 -6.5
q8 0 13.5 3.5t11.5 8.5q12 10 29 10q20 0 33.5 -12.5t13.5 -32.5q0 -26 -27.5 -47.5t-74.5 -21.5z" />
    <glyph glyph-name="Ograve" unicode="&#xd2;" horiz-adv-x="590" 
d="M295 -10q-81 0 -142.5 40.5t-91.5 108.5q-11 25 -16 56t-5 65v180q0 34 5 65t16 56q30 68 91 108.5t143 40.5q81 0 142.5 -40.5t91.5 -108.5q11 -25 16 -56t5 -65v-180q0 -34 -5 -65t-16 -56q-30 -68 -91 -108.5t-143 -40.5zM295 90q48 0 83.5 23.5t51.5 55.5
q8 17 11.5 39.5t3.5 46.5v190q0 24 -3.5 46.5t-11.5 39.5q-16 32 -51.5 55.5t-83.5 23.5t-83.5 -23.5t-51.5 -55.5q-8 -17 -11.5 -39.5t-3.5 -46.5v-190q0 -24 3.5 -46.5t11.5 -39.5q16 -32 51.5 -55.5t83.5 -23.5zM343 741q-23 0 -37 17l-64 77q-12 15 -12 32
q0 19 14.5 32.5t33.5 13.5q23 0 37 -17l64 -76q11 -13 11 -32q0 -20 -14.5 -33.5t-32.5 -13.5z" />
    <glyph glyph-name="Oacute" unicode="&#xd3;" horiz-adv-x="590" 
d="M295 -10q-81 0 -142.5 40.5t-91.5 108.5q-11 25 -16 56t-5 65v180q0 34 5 65t16 56q30 68 91 108.5t143 40.5q81 0 142.5 -40.5t91.5 -108.5q11 -25 16 -56t5 -65v-180q0 -34 -5 -65t-16 -56q-30 -68 -91 -108.5t-143 -40.5zM295 90q48 0 83.5 23.5t51.5 55.5
q8 17 11.5 39.5t3.5 46.5v190q0 24 -3.5 46.5t-11.5 39.5q-16 32 -51.5 55.5t-83.5 23.5t-83.5 -23.5t-51.5 -55.5q-8 -17 -11.5 -39.5t-3.5 -46.5v-190q0 -24 3.5 -46.5t11.5 -39.5q16 -32 51.5 -55.5t83.5 -23.5zM279 741q-18 0 -32.5 13.5t-14.5 33.5q0 19 11 32l64 76
q14 17 37 17q19 0 33.5 -13.5t14.5 -32.5q0 -17 -12 -32l-64 -77q-14 -17 -37 -17z" />
    <glyph glyph-name="Ocircumflex" unicode="&#xd4;" horiz-adv-x="590" 
d="M295 -10q-81 0 -142.5 40.5t-91.5 108.5q-11 25 -16 56t-5 65v180q0 34 5 65t16 56q30 68 91 108.5t143 40.5q81 0 142.5 -40.5t91.5 -108.5q11 -25 16 -56t5 -65v-180q0 -34 -5 -65t-16 -56q-30 -68 -91 -108.5t-143 -40.5zM295 90q48 0 83.5 23.5t51.5 55.5
q8 17 11.5 39.5t3.5 46.5v190q0 24 -3.5 46.5t-11.5 39.5q-16 32 -51.5 55.5t-83.5 23.5t-83.5 -23.5t-51.5 -55.5q-8 -17 -11.5 -39.5t-3.5 -46.5v-190q0 -24 3.5 -46.5t11.5 -39.5q16 -32 51.5 -55.5t83.5 -23.5zM204 738q-17 0 -29 12.5t-12 30.5q0 8 3 16t8 13l82 86
q7 7 16.5 12.5t21.5 5.5q22 0 38 -18l82 -86q5 -5 8 -13t3 -16q0 -18 -12 -30.5t-29 -12.5q-11 0 -19 4.5t-16 11.5l-54 50l-56 -50q-8 -7 -16 -11.5t-19 -4.5z" />
    <glyph glyph-name="Otilde" unicode="&#xd5;" horiz-adv-x="590" 
d="M295 -10q-81 0 -142.5 40.5t-91.5 108.5q-11 25 -16 56t-5 65v180q0 34 5 65t16 56q30 68 91 108.5t143 40.5q81 0 142.5 -40.5t91.5 -108.5q11 -25 16 -56t5 -65v-180q0 -34 -5 -65t-16 -56q-30 -68 -91 -108.5t-143 -40.5zM295 90q48 0 83.5 23.5t51.5 55.5
q8 17 11.5 39.5t3.5 46.5v190q0 24 -3.5 46.5t-11.5 39.5q-16 32 -51.5 55.5t-83.5 23.5t-83.5 -23.5t-51.5 -55.5q-8 -17 -11.5 -39.5t-3.5 -46.5v-190q0 -24 3.5 -46.5t11.5 -39.5q16 -32 51.5 -55.5t83.5 -23.5zM366 749q-26 0 -44.5 6.5t-33 15t-26 15t-23.5 6.5
q-7 0 -12 -3.5t-11 -8.5q-13 -10 -31 -10q-20 0 -33 12.5t-13 32.5q0 27 28.5 48t73.5 21q25 0 44 -6.5t33.5 -15t26 -15t22.5 -6.5q8 0 13.5 3.5t11.5 8.5q12 10 29 10q20 0 33.5 -12.5t13.5 -32.5q0 -26 -27.5 -47.5t-74.5 -21.5z" />
    <glyph glyph-name="Odieresis" unicode="&#xd6;" horiz-adv-x="590" 
d="M295 -10q-81 0 -142.5 40.5t-91.5 108.5q-11 25 -16 56t-5 65v180q0 34 5 65t16 56q30 68 91 108.5t143 40.5q81 0 142.5 -40.5t91.5 -108.5q11 -25 16 -56t5 -65v-180q0 -34 -5 -65t-16 -56q-30 -68 -91 -108.5t-143 -40.5zM295 90q48 0 83.5 23.5t51.5 55.5
q8 17 11.5 39.5t3.5 46.5v190q0 24 -3.5 46.5t-11.5 39.5q-16 32 -51.5 55.5t-83.5 23.5t-83.5 -23.5t-51.5 -55.5q-8 -17 -11.5 -39.5t-3.5 -46.5v-190q0 -24 3.5 -46.5t11.5 -39.5q16 -32 51.5 -55.5t83.5 -23.5zM386 743q-26 0 -43 17t-17 43t17 43t43 17t43 -17t17 -43
t-17 -43t-43 -17zM206 743q-26 0 -43 17t-17 43t17 43t43 17t43 -17t17 -43t-17 -43t-43 -17z" />
    <glyph glyph-name="multiply" unicode="&#xd7;" horiz-adv-x="540" 
d="M132 99q-16 15 -15 35t16 36l65 66l-65 65q-15 15 -15.5 35.5t15.5 35.5t36 15.5t36 -15.5l65 -65l64 65q15 16 35.5 16t35.5 -16t15.5 -36t-15.5 -36l-64 -64l65 -65q16 -16 15.5 -36t-15.5 -36t-35.5 -15t-35.5 16l-65 65l-66 -66q-16 -16 -36 -15.5t-36 15.5z" />
    <glyph glyph-name="Oslash" unicode="&#xd8;" horiz-adv-x="590" 
d="M43 -10q-14 11 -17.5 27.5t6.5 30.5l44 62q-4 8 -7.5 14.5t-7.5 14.5q-11 25 -16 56t-5 65v180q0 34 5 65t16 56q30 68 91 108.5t143 40.5q48 0 89 -14.5t73 -40.5q7 9 12.5 17.5t10.5 14.5q5 7 9 13q10 14 27 17.5t31 -7.5t17.5 -27.5t-6.5 -30.5l-44 -63
q4 -7 7.5 -13.5t7.5 -14.5q11 -25 16 -56t5 -65v-180q0 -34 -5 -65t-16 -56q-30 -68 -91 -108.5t-143 -40.5q-48 0 -89 14.5t-73 40.5l-32 -45q-10 -14 -27 -17.5t-31 7.5zM399 571q-20 17 -46 28t-58 11q-48 0 -83.5 -23.5t-51.5 -55.5q-8 -17 -11.5 -39.5t-3.5 -46.5v-190
q0 -21 3 -42zM295 90q48 0 83.5 23.5t51.5 55.5q8 17 11.5 39.5t3.5 46.5v190q0 21 -3 42l-251 -359q20 -17 46 -27.5t58 -10.5z" />
    <glyph glyph-name="Ugrave" unicode="&#xd9;" 
d="M305 -10q-81 0 -142.5 40.5t-91.5 108.5q-11 25 -16 56t-5 65v397q0 22 15 37.5t37 15.5t37.5 -15.5t15.5 -37.5v-402q0 -24 3.5 -46.5t11.5 -39.5q16 -32 51.5 -55.5t83.5 -23.5t83.5 23.5t51.5 55.5q8 17 11.5 39.5t3.5 46.5v402q0 22 15.5 37.5t37.5 15.5t37 -15.5
t15 -37.5v-397q0 -34 -5 -65t-16 -56q-30 -68 -91 -108.5t-143 -40.5zM333 741q-23 0 -37 17l-64 77q-12 15 -12 32q0 19 14.5 32.5t33.5 13.5q23 0 37 -17l64 -76q11 -13 11 -32q0 -20 -14.5 -33.5t-32.5 -13.5z" />
    <glyph glyph-name="Uacute" unicode="&#xda;" 
d="M305 -10q-81 0 -142.5 40.5t-91.5 108.5q-11 25 -16 56t-5 65v397q0 22 15 37.5t37 15.5t37.5 -15.5t15.5 -37.5v-402q0 -24 3.5 -46.5t11.5 -39.5q16 -32 51.5 -55.5t83.5 -23.5t83.5 23.5t51.5 55.5q8 17 11.5 39.5t3.5 46.5v402q0 22 15.5 37.5t37.5 15.5t37 -15.5
t15 -37.5v-397q0 -34 -5 -65t-16 -56q-30 -68 -91 -108.5t-143 -40.5zM299 741q-18 0 -32.5 13.5t-14.5 33.5q0 19 11 32l64 76q14 17 37 17q19 0 33.5 -13.5t14.5 -32.5q0 -17 -12 -32l-64 -77q-14 -17 -37 -17z" />
    <glyph glyph-name="Ucircumflex" unicode="&#xdb;" 
d="M305 -10q-81 0 -142.5 40.5t-91.5 108.5q-11 25 -16 56t-5 65v397q0 22 15 37.5t37 15.5t37.5 -15.5t15.5 -37.5v-402q0 -24 3.5 -46.5t11.5 -39.5q16 -32 51.5 -55.5t83.5 -23.5t83.5 23.5t51.5 55.5q8 17 11.5 39.5t3.5 46.5v402q0 22 15.5 37.5t37.5 15.5t37 -15.5
t15 -37.5v-397q0 -34 -5 -65t-16 -56q-30 -68 -91 -108.5t-143 -40.5zM214 738q-17 0 -29 12.5t-12 30.5q0 8 3 16t8 13l82 86q7 7 16.5 12.5t21.5 5.5q22 0 38 -18l82 -86q5 -5 8 -13t3 -16q0 -18 -12 -30.5t-29 -12.5q-11 0 -19 4.5t-16 11.5l-54 50l-56 -50
q-8 -7 -16 -11.5t-19 -4.5z" />
    <glyph glyph-name="Udieresis" unicode="&#xdc;" 
d="M305 -10q-81 0 -142.5 40.5t-91.5 108.5q-11 25 -16 56t-5 65v397q0 22 15 37.5t37 15.5t37.5 -15.5t15.5 -37.5v-402q0 -24 3.5 -46.5t11.5 -39.5q16 -32 51.5 -55.5t83.5 -23.5t83.5 23.5t51.5 55.5q8 17 11.5 39.5t3.5 46.5v402q0 22 15.5 37.5t37.5 15.5t37 -15.5
t15 -37.5v-397q0 -34 -5 -65t-16 -56q-30 -68 -91 -108.5t-143 -40.5zM386 743q-26 0 -43 17t-17 43t17 43t43 17t43 -17t17 -43t-17 -43t-43 -17zM206 743q-26 0 -43 17t-17 43t17 43t43 17t43 -17t17 -43t-17 -43t-43 -17z" />
    <glyph glyph-name="Yacute" unicode="&#xdd;" 
d="M305 -10q-22 0 -37 15.5t-15 37.5v192q-63 12 -110 49.5t-72 94.5q-11 25 -16 56t-5 65v157q0 22 15 37.5t37 15.5t37.5 -15.5t15.5 -37.5v-162q0 -24 3.5 -46.5t11.5 -39.5q16 -32 51.5 -55.5t83.5 -23.5t83.5 23.5t51.5 55.5q8 17 11.5 39.5t3.5 46.5v162
q0 22 15.5 37.5t37.5 15.5t37 -15.5t15 -37.5v-157q0 -34 -5 -65t-16 -56q-25 -57 -71.5 -94.5t-109.5 -49.5v-192q0 -22 -15.5 -37.5t-37.5 -15.5zM309 741q-18 0 -32.5 13.5t-14.5 33.5q0 19 11 32l64 76q14 17 37 17q19 0 33.5 -13.5t14.5 -32.5q0 -17 -12 -32l-64 -77
q-14 -17 -37 -17z" />
    <glyph glyph-name="Thorn" unicode="&#xde;" horiz-adv-x="510" 
d="M102 -10q-22 0 -37 15.5t-15 37.5v614q0 22 15 37.5t37 15.5t37.5 -15.5t15.5 -37.5v-77h117q45 0 86 -15.5t72.5 -44t50.5 -69t19 -89.5q0 -50 -19 -90t-50.5 -68.5t-72.5 -43.5t-86 -15h-117v-102q0 -22 -15.5 -37.5t-37.5 -15.5zM282 245q47 0 80 30t33 87
q0 56 -33 87t-80 31h-127v-235h127z" />
    <glyph glyph-name="germandbls" unicode="&#xdf;" horiz-adv-x="520" 
d="M140 -10q-21 0 -35.5 14.5t-14.5 35.5v325h-30q-20 0 -33.5 13.5t-13.5 33.5t13.5 34t33.5 14h30v90q0 30 10 59t30 51.5t49.5 36t68.5 13.5q36 0 64.5 -11t48.5 -30.5t30.5 -46.5t10.5 -60q0 -38 -14.5 -71t-31.5 -61.5t-31.5 -52.5t-14.5 -43q0 -17 8.5 -28t30.5 -17
q36 -11 66 -23.5t51.5 -31t34 -44.5t12.5 -64q0 -29 -12 -53.5t-33 -43t-50.5 -29t-64.5 -10.5q-46 0 -74 13t-45 28q-17 14 -17 39q0 18 13.5 32t33.5 14q11 0 18 -2.5t17 -10.5t21.5 -13t32.5 -5q28 0 44 12.5t16 32.5q0 13 -9 24.5t-29 16.5q-31 9 -60 21t-51.5 31
t-36 46t-13.5 65q0 30 13.5 57.5t30 55t30.5 56t14 59.5q0 24 -14 38.5t-40 14.5q-58 0 -58 -65v-510q0 -21 -14.5 -35.5t-35.5 -14.5z" />
    <glyph glyph-name="agrave" unicode="&#xe0;" horiz-adv-x="460" 
d="M190 -10q-39 0 -67 14.5t-46.5 37t-27.5 51t-9 57.5v138q0 22 2.5 43.5t13.5 44.5q18 40 56 67t95 27q36 0 61 -12.5t32 -37.5h10q0 21 14.5 35.5t35.5 14.5t35.5 -14.5t14.5 -35.5v-380q0 -21 -14.5 -35.5t-35.5 -14.5t-35.5 14.5t-14.5 35.5v10h-10q-7 -25 -34 -42.5
t-76 -17.5zM220 85q36 0 58.5 12t31.5 26v222q-12 12 -29 21t-47 9q-51 0 -72.5 -25.5t-21.5 -66.5v-118q0 -35 19 -57.5t61 -22.5zM253 512q-23 0 -37 17l-64 77q-12 15 -12 32q0 19 14.5 32.5t33.5 13.5q23 0 37 -17l64 -76q11 -13 11 -32q0 -20 -14.5 -33.5t-32.5 -13.5z
" />
    <glyph glyph-name="aacute" unicode="&#xe1;" horiz-adv-x="460" 
d="M190 -10q-39 0 -67 14.5t-46.5 37t-27.5 51t-9 57.5v138q0 22 2.5 43.5t13.5 44.5q18 40 56 67t95 27q36 0 61 -12.5t32 -37.5h10q0 21 14.5 35.5t35.5 14.5t35.5 -14.5t14.5 -35.5v-380q0 -21 -14.5 -35.5t-35.5 -14.5t-35.5 14.5t-14.5 35.5v10h-10q-7 -25 -34 -42.5
t-76 -17.5zM220 85q36 0 58.5 12t31.5 26v222q-12 12 -29 21t-47 9q-51 0 -72.5 -25.5t-21.5 -66.5v-118q0 -35 19 -57.5t61 -22.5zM239 512q-18 0 -32.5 13.5t-14.5 33.5q0 19 11 32l64 76q14 17 37 17q19 0 33.5 -13.5t14.5 -32.5q0 -17 -12 -32l-64 -77q-14 -17 -37 -17z
" />
    <glyph glyph-name="acircumflex" unicode="&#xe2;" horiz-adv-x="460" 
d="M190 -10q-39 0 -67 14.5t-46.5 37t-27.5 51t-9 57.5v138q0 22 2.5 43.5t13.5 44.5q18 40 56 67t95 27q36 0 61 -12.5t32 -37.5h10q0 21 14.5 35.5t35.5 14.5t35.5 -14.5t14.5 -35.5v-380q0 -21 -14.5 -35.5t-35.5 -14.5t-35.5 14.5t-14.5 35.5v10h-10q-7 -25 -34 -42.5
t-76 -17.5zM220 85q36 0 58.5 12t31.5 26v222q-12 12 -29 21t-47 9q-51 0 -72.5 -25.5t-21.5 -66.5v-118q0 -35 19 -57.5t61 -22.5zM144 506q-17 0 -29 12.5t-12 30.5q0 8 3 16t8 13l82 86q7 7 16.5 12.5t21.5 5.5q22 0 38 -18l82 -86q5 -5 8 -13t3 -16q0 -18 -12 -30.5
t-29 -12.5q-11 0 -19 4.5t-16 11.5l-54 50l-56 -50q-8 -7 -16 -11.5t-19 -4.5z" />
    <glyph glyph-name="atilde" unicode="&#xe3;" horiz-adv-x="460" 
d="M190 -10q-39 0 -67 14.5t-46.5 37t-27.5 51t-9 57.5v138q0 22 2.5 43.5t13.5 44.5q18 40 56 67t95 27q36 0 61 -12.5t32 -37.5h10q0 21 14.5 35.5t35.5 14.5t35.5 -14.5t14.5 -35.5v-380q0 -21 -14.5 -35.5t-35.5 -14.5t-35.5 14.5t-14.5 35.5v10h-10q-7 -25 -34 -42.5
t-76 -17.5zM220 85q36 0 58.5 12t31.5 26v222q-12 12 -29 21t-47 9q-51 0 -72.5 -25.5t-21.5 -66.5v-118q0 -35 19 -57.5t61 -22.5zM310 509q-26 0 -44.5 6.5t-33 15t-26 15t-23.5 6.5q-7 0 -12 -3.5t-11 -8.5q-13 -10 -31 -10q-20 0 -33 12.5t-13 32.5q0 27 28.5 48
t73.5 21q25 0 44 -6.5t33.5 -15t26 -15t22.5 -6.5q8 0 13.5 3.5t11.5 8.5q12 10 29 10q20 0 33.5 -12.5t13.5 -32.5q0 -26 -27.5 -47.5t-74.5 -21.5z" />
    <glyph glyph-name="adieresis" unicode="&#xe4;" horiz-adv-x="460" 
d="M190 -10q-39 0 -67 14.5t-46.5 37t-27.5 51t-9 57.5v138q0 22 2.5 43.5t13.5 44.5q18 40 56 67t95 27q36 0 61 -12.5t32 -37.5h10q0 21 14.5 35.5t35.5 14.5t35.5 -14.5t14.5 -35.5v-380q0 -21 -14.5 -35.5t-35.5 -14.5t-35.5 14.5t-14.5 35.5v10h-10q-7 -25 -34 -42.5
t-76 -17.5zM220 85q36 0 58.5 12t31.5 26v222q-12 12 -29 21t-47 9q-51 0 -72.5 -25.5t-21.5 -66.5v-118q0 -35 19 -57.5t61 -22.5zM345 530q-26 0 -43 17t-17 43t17 43t43 17t43 -17t17 -43t-17 -43t-43 -17zM165 530q-26 0 -43 17t-17 43t17 43t43 17t43 -17t17 -43
t-17 -43t-43 -17z" />
    <glyph glyph-name="aring" unicode="&#xe5;" horiz-adv-x="460" 
d="M190 -10q-39 0 -67 14.5t-46.5 37t-27.5 51t-9 57.5v138q0 22 2.5 43.5t13.5 44.5q18 40 56 67t95 27q36 0 61 -12.5t32 -37.5h10q0 21 14.5 35.5t35.5 14.5t35.5 -14.5t14.5 -35.5v-380q0 -21 -14.5 -35.5t-35.5 -14.5t-35.5 14.5t-14.5 35.5v10h-10q-7 -25 -34 -42.5
t-76 -17.5zM220 85q36 0 58.5 12t31.5 26v222q-12 12 -29 21t-47 9q-51 0 -72.5 -25.5t-21.5 -66.5v-118q0 -35 19 -57.5t61 -22.5zM240 518q-40 0 -68 28t-28 68t28 68t68 28t68 -28t28 -68t-28 -68t-68 -28zM240 568q19 0 32.5 13.5t13.5 32.5t-13.5 32.5t-32.5 13.5
t-32.5 -13.5t-13.5 -32.5t13.5 -32.5t32.5 -13.5z" />
    <glyph glyph-name="ae" unicode="&#xe6;" horiz-adv-x="665" 
d="M161 -10q-26 0 -49.5 9t-41 26.5t-28 42.5t-10.5 57q0 31 11.5 58t33 46t51.5 30t68 11h74v40q0 65 -65 65q-38 0 -59 -18q-10 -8 -17 -10.5t-18 -2.5q-20 0 -33.5 14t-13.5 32q0 24 17 39q16 14 48 27.5t83 13.5t80 -18.5t37 -38.5h10q3 8 11.5 18t23.5 18.5t36 14.5
t50 6q34 0 64 -12t52.5 -36t35.5 -61t13 -86v-39q0 -20 -14 -33.5t-34 -13.5h-207v-19q0 -39 26 -62t69 -23q19 0 34 5.5t25 13.5t17 10.5t18 2.5q20 0 33.5 -14t13.5 -32q0 -24 -17 -39q-16 -14 -47 -28t-77 -14q-62 0 -97 23t-51 53h-10q-15 -32 -49 -54t-97 -22zM525 270
v23q0 39 -20 60.5t-58 21.5t-57.5 -21.5t-19.5 -60.5v-23h155zM193 85q26 0 45.5 12t31.5 31v61h-67q-43 0 -57 -16t-14 -38q0 -23 16 -36.5t45 -13.5z" />
    <glyph glyph-name="ccedilla" unicode="&#xe7;" horiz-adv-x="390" 
d="M206 -240q-22 0 -36.5 6.5t-22.5 14.5q-9 9 -9 23q0 11 8 19.5t20 8.5q8 0 12 -1t10 -6q3 -2 7.5 -4.5t10.5 -2.5q14 0 22.5 8.5t8.5 22.5v9q0 14 -8.5 22.5t-22.5 8.5q-6 0 -10.5 -2.5t-7.5 -4.5q-6 -5 -10 -6t-12 -1q-12 0 -20 8.5t-8 17.5t3.5 16t8.5 15l39 61
q-50 8 -84 37t-51 71q-8 19 -11 41t-3 43v90q0 21 3 43t11 41q20 49 65.5 80t105.5 31q46 0 76.5 -15t42.5 -26q17 -14 17 -39q0 -18 -13.5 -32t-33.5 -14q-11 0 -18 2.5t-17 10.5t-22.5 13t-31.5 5q-38 0 -61.5 -23t-23.5 -62v-120q0 -39 23.5 -62t61.5 -23q19 0 31.5 5
t22.5 13t17 10.5t18 2.5q20 0 33.5 -14t13.5 -32q0 -24 -17 -39q-14 -14 -40 -26.5t-66 -14.5l-28 -43q40 -2 64 -27t24 -58v-17q0 -34 -23.5 -59.5t-68.5 -25.5z" />
    <glyph glyph-name="egrave" unicode="&#xe8;" horiz-adv-x="435" 
d="M235 -10q-69 0 -115 31t-66 80q-8 19 -11 41t-3 43v90q0 21 3 43t11 41q20 49 61.5 80t101.5 31t102.5 -31t62.5 -80q8 -19 10.5 -41t2.5 -43v-44q0 -20 -14 -33.5t-34 -13.5h-207v-14q0 -39 26 -62t69 -23q19 0 34 5.5t25 13.5t17 10.5t18 2.5q20 0 33.5 -14t13.5 -32
q0 -24 -17 -39q-16 -14 -47 -28t-77 -14zM295 279v14q0 39 -20 60.5t-58 21.5t-57.5 -21.5t-19.5 -60.5v-14h155zM243 512q-23 0 -37 17l-64 77q-12 15 -12 32q0 19 14.5 32.5t33.5 13.5q23 0 37 -17l64 -76q11 -13 11 -32q0 -20 -14.5 -33.5t-32.5 -13.5z" />
    <glyph glyph-name="eacute" unicode="&#xe9;" horiz-adv-x="435" 
d="M235 -10q-69 0 -115 31t-66 80q-8 19 -11 41t-3 43v90q0 21 3 43t11 41q20 49 61.5 80t101.5 31t102.5 -31t62.5 -80q8 -19 10.5 -41t2.5 -43v-44q0 -20 -14 -33.5t-34 -13.5h-207v-14q0 -39 26 -62t69 -23q19 0 34 5.5t25 13.5t17 10.5t18 2.5q20 0 33.5 -14t13.5 -32
q0 -24 -17 -39q-16 -14 -47 -28t-77 -14zM295 279v14q0 39 -20 60.5t-58 21.5t-57.5 -21.5t-19.5 -60.5v-14h155zM239 512q-18 0 -32.5 13.5t-14.5 33.5q0 19 11 32l64 76q14 17 37 17q19 0 33.5 -13.5t14.5 -32.5q0 -17 -12 -32l-64 -77q-14 -17 -37 -17z" />
    <glyph glyph-name="ecircumflex" unicode="&#xea;" horiz-adv-x="435" 
d="M235 -10q-69 0 -115 31t-66 80q-8 19 -11 41t-3 43v90q0 21 3 43t11 41q20 49 61.5 80t101.5 31t102.5 -31t62.5 -80q8 -19 10.5 -41t2.5 -43v-44q0 -20 -14 -33.5t-34 -13.5h-207v-14q0 -39 26 -62t69 -23q19 0 34 5.5t25 13.5t17 10.5t18 2.5q20 0 33.5 -14t13.5 -32
q0 -24 -17 -39q-16 -14 -47 -28t-77 -14zM295 279v14q0 39 -20 60.5t-58 21.5t-57.5 -21.5t-19.5 -60.5v-14h155zM134 506q-17 0 -29 12.5t-12 30.5q0 8 3 16t8 13l82 86q7 7 16.5 12.5t21.5 5.5q22 0 38 -18l82 -86q5 -5 8 -13t3 -16q0 -18 -12 -30.5t-29 -12.5
q-11 0 -19 4.5t-16 11.5l-54 50l-56 -50q-8 -7 -16 -11.5t-19 -4.5z" />
    <glyph glyph-name="edieresis" unicode="&#xeb;" horiz-adv-x="435" 
d="M235 -10q-69 0 -115 31t-66 80q-8 19 -11 41t-3 43v90q0 21 3 43t11 41q20 49 61.5 80t101.5 31t102.5 -31t62.5 -80q8 -19 10.5 -41t2.5 -43v-44q0 -20 -14 -33.5t-34 -13.5h-207v-14q0 -39 26 -62t69 -23q19 0 34 5.5t25 13.5t17 10.5t18 2.5q20 0 33.5 -14t13.5 -32
q0 -24 -17 -39q-16 -14 -47 -28t-77 -14zM295 279v14q0 39 -20 60.5t-58 21.5t-57.5 -21.5t-19.5 -60.5v-14h155zM315 530q-26 0 -43 17t-17 43t17 43t43 17t43 -17t17 -43t-17 -43t-43 -17zM135 530q-26 0 -43 17t-17 43t17 43t43 17t43 -17t17 -43t-17 -43t-43 -17z" />
    <glyph glyph-name="igrave" unicode="&#xec;" horiz-adv-x="220" 
d="M110 -10q-21 0 -35.5 14.5t-14.5 35.5v380q0 21 14.5 35.5t35.5 14.5t35.5 -14.5t14.5 -35.5v-380q0 -21 -14.5 -35.5t-35.5 -14.5zM114 512q-23 0 -37 17l-64 77q-12 15 -12 32q0 19 14.5 32.5t33.5 13.5q23 0 37 -17l64 -76q11 -13 11 -32q0 -20 -14.5 -33.5
t-32.5 -13.5z" />
    <glyph glyph-name="iacute" unicode="&#xed;" horiz-adv-x="220" 
d="M110 -10q-21 0 -35.5 14.5t-14.5 35.5v380q0 21 14.5 35.5t35.5 14.5t35.5 -14.5t14.5 -35.5v-380q0 -21 -14.5 -35.5t-35.5 -14.5zM130 512q-18 0 -32.5 13.5t-14.5 33.5q0 19 11 32l64 76q14 17 37 17q19 0 33.5 -13.5t14.5 -32.5q0 -17 -12 -32l-64 -77
q-14 -17 -37 -17z" />
    <glyph glyph-name="icircumflex" unicode="&#xee;" horiz-adv-x="220" 
d="M110 -10q-21 0 -35.5 14.5t-14.5 35.5v380q0 21 14.5 35.5t35.5 14.5t35.5 -14.5t14.5 -35.5v-380q0 -21 -14.5 -35.5t-35.5 -14.5zM20 506q-17 0 -29 12.5t-12 30.5q0 8 3 16t8 13l82 86q7 7 16.5 12.5t21.5 5.5q22 0 38 -18l82 -86q5 -5 8 -13t3 -16q0 -18 -12 -30.5
t-29 -12.5q-11 0 -19 4.5t-16 11.5l-54 50l-56 -50q-8 -7 -16 -11.5t-19 -4.5z" />
    <glyph glyph-name="idieresis" unicode="&#xef;" horiz-adv-x="220" 
d="M110 -10q-21 0 -35.5 14.5t-14.5 35.5v380q0 21 14.5 35.5t35.5 14.5t35.5 -14.5t14.5 -35.5v-380q0 -21 -14.5 -35.5t-35.5 -14.5zM201 530q-26 0 -43 17t-17 43t17 43t43 17t43 -17t17 -43t-17 -43t-43 -17zM21 530q-26 0 -43 17t-17 43t17 43t43 17t43 -17t17 -43
t-17 -43t-43 -17z" />
    <glyph glyph-name="eth" unicode="&#xf0;" horiz-adv-x="450" 
d="M225 -10q-60 0 -105.5 31t-65.5 80q-8 19 -11 41t-3 43v90q0 21 3 43t11 41q19 46 60 76.5t102 33.5l-37 43l-17 -14q-14 -11 -31 -10t-29 15t-10.5 31.5t15.5 28.5l17 14l-25 29q-12 13 -12 32t14.5 32.5t33.5 13.5q23 0 37 -17l24 -29l18 15q14 12 31.5 10.5
t29.5 -15.5q11 -13 9.5 -31t-15.5 -29l-20 -16l87 -107q32 -39 53 -83t21 -107v-90q0 -21 -3 -43t-11 -41q-20 -49 -65.5 -80t-105.5 -31zM225 85q38 0 61.5 23t23.5 62v120q0 39 -23.5 62t-61.5 23t-61.5 -23t-23.5 -62v-120q0 -39 23.5 -62t61.5 -23z" />
    <glyph glyph-name="ntilde" unicode="&#xf1;" horiz-adv-x="470" 
d="M100 -10q-21 0 -35.5 14.5t-14.5 35.5v235q0 21 3 43t11 41q20 49 65.5 80t105.5 31t105.5 -31t65.5 -80q8 -19 11 -41t3 -43v-235q0 -21 -14.5 -35.5t-35.5 -14.5t-35.5 14.5t-14.5 35.5v250q0 39 -23.5 62t-61.5 23t-61.5 -23t-23.5 -62v-250q0 -21 -14.5 -35.5
t-35.5 -14.5zM297 509q-26 0 -44.5 6.5t-33 15t-26 15t-23.5 6.5q-7 0 -12 -3.5t-11 -8.5q-13 -10 -31 -10q-20 0 -33 12.5t-13 32.5q0 27 28.5 48t73.5 21q25 0 44 -6.5t33.5 -15t26 -15t22.5 -6.5q8 0 13.5 3.5t11.5 8.5q12 10 29 10q20 0 33.5 -12.5t13.5 -32.5
q0 -26 -27.5 -47.5t-74.5 -21.5z" />
    <glyph glyph-name="ograve" unicode="&#xf2;" horiz-adv-x="450" 
d="M225 -10q-60 0 -105.5 31t-65.5 80q-8 19 -11 41t-3 43v90q0 21 3 43t11 41q20 49 65.5 80t105.5 31t105.5 -31t65.5 -80q8 -19 11 -41t3 -43v-90q0 -21 -3 -43t-11 -41q-20 -49 -65.5 -80t-105.5 -31zM225 85q38 0 61.5 23t23.5 62v120q0 39 -23.5 62t-61.5 23
t-61.5 -23t-23.5 -62v-120q0 -39 23.5 -62t61.5 -23zM243 512q-23 0 -37 17l-64 77q-12 15 -12 32q0 19 14.5 32.5t33.5 13.5q23 0 37 -17l64 -76q11 -13 11 -32q0 -20 -14.5 -33.5t-32.5 -13.5z" />
    <glyph glyph-name="oacute" unicode="&#xf3;" horiz-adv-x="450" 
d="M225 -10q-60 0 -105.5 31t-65.5 80q-8 19 -11 41t-3 43v90q0 21 3 43t11 41q20 49 65.5 80t105.5 31t105.5 -31t65.5 -80q8 -19 11 -41t3 -43v-90q0 -21 -3 -43t-11 -41q-20 -49 -65.5 -80t-105.5 -31zM225 85q38 0 61.5 23t23.5 62v120q0 39 -23.5 62t-61.5 23
t-61.5 -23t-23.5 -62v-120q0 -39 23.5 -62t61.5 -23zM239 512q-18 0 -32.5 13.5t-14.5 33.5q0 19 11 32l64 76q14 17 37 17q19 0 33.5 -13.5t14.5 -32.5q0 -17 -12 -32l-64 -77q-14 -17 -37 -17z" />
    <glyph glyph-name="ocircumflex" unicode="&#xf4;" horiz-adv-x="450" 
d="M225 -10q-60 0 -105.5 31t-65.5 80q-8 19 -11 41t-3 43v90q0 21 3 43t11 41q20 49 65.5 80t105.5 31t105.5 -31t65.5 -80q8 -19 11 -41t3 -43v-90q0 -21 -3 -43t-11 -41q-20 -49 -65.5 -80t-105.5 -31zM225 85q38 0 61.5 23t23.5 62v120q0 39 -23.5 62t-61.5 23
t-61.5 -23t-23.5 -62v-120q0 -39 23.5 -62t61.5 -23zM134 506q-17 0 -29 12.5t-12 30.5q0 8 3 16t8 13l82 86q7 7 16.5 12.5t21.5 5.5q22 0 38 -18l82 -86q5 -5 8 -13t3 -16q0 -18 -12 -30.5t-29 -12.5q-11 0 -19 4.5t-16 11.5l-54 50l-56 -50q-8 -7 -16 -11.5t-19 -4.5z
" />
    <glyph glyph-name="otilde" unicode="&#xf5;" horiz-adv-x="450" 
d="M225 -10q-60 0 -105.5 31t-65.5 80q-8 19 -11 41t-3 43v90q0 21 3 43t11 41q20 49 65.5 80t105.5 31t105.5 -31t65.5 -80q8 -19 11 -41t3 -43v-90q0 -21 -3 -43t-11 -41q-20 -49 -65.5 -80t-105.5 -31zM225 85q38 0 61.5 23t23.5 62v120q0 39 -23.5 62t-61.5 23
t-61.5 -23t-23.5 -62v-120q0 -39 23.5 -62t61.5 -23zM290 509q-26 0 -44.5 6.5t-33 15t-26 15t-23.5 6.5q-7 0 -12 -3.5t-11 -8.5q-13 -10 -31 -10q-20 0 -33 12.5t-13 32.5q0 27 28.5 48t73.5 21q25 0 44 -6.5t33.5 -15t26 -15t22.5 -6.5q8 0 13.5 3.5t11.5 8.5
q12 10 29 10q20 0 33.5 -12.5t13.5 -32.5q0 -26 -27.5 -47.5t-74.5 -21.5z" />
    <glyph glyph-name="odieresis" unicode="&#xf6;" horiz-adv-x="450" 
d="M225 -10q-60 0 -105.5 31t-65.5 80q-8 19 -11 41t-3 43v90q0 21 3 43t11 41q20 49 65.5 80t105.5 31t105.5 -31t65.5 -80q8 -19 11 -41t3 -43v-90q0 -21 -3 -43t-11 -41q-20 -49 -65.5 -80t-105.5 -31zM225 85q38 0 61.5 23t23.5 62v120q0 39 -23.5 62t-61.5 23
t-61.5 -23t-23.5 -62v-120q0 -39 23.5 -62t61.5 -23zM315 530q-26 0 -43 17t-17 43t17 43t43 17t43 -17t17 -43t-17 -43t-43 -17zM135 530q-26 0 -43 17t-17 43t17 43t43 17t43 -17t17 -43t-17 -43t-43 -17z" />
    <glyph glyph-name="divide" unicode="&#xf7;" horiz-adv-x="540" 
d="M268 357q-26 0 -43 17t-17 43t17 43t43 17t43 -17t17 -43t-17 -43t-43 -17zM127 186q-22 0 -36 14t-14 36t14 36.5t36 14.5h285q22 0 36.5 -14.5t14.5 -36.5t-14.5 -36t-36.5 -14h-285zM268 -3q-26 0 -43 17t-17 43t17 43t43 17t43 -17t17 -43t-17 -43t-43 -17z" />
    <glyph glyph-name="oslash" unicode="&#xf8;" horiz-adv-x="450" 
d="M41 -32q-14 9 -17 26.5t7 31.5l35 50q-3 7 -6 13l-6 12q-8 19 -11 41t-3 43v90q0 21 3 43t11 41q20 49 65.5 80t105.5 31q54 0 98 -27l27 39q10 14 27.5 17t31.5 -7q14 -9 17 -26.5t-7 -31.5l-35 -51l12 -24q8 -19 11 -41t3 -43v-90q0 -21 -3 -43t-11 -41
q-20 -49 -65.5 -80t-105.5 -31q-28 0 -52.5 7t-45.5 19l-27 -38q-10 -14 -27.5 -17t-31.5 7zM268 365q-20 10 -43 10q-38 0 -61.5 -23t-23.5 -62v-108zM225 85q38 0 61.5 23t23.5 62v108l-128 -183q20 -10 43 -10z" />
    <glyph glyph-name="ugrave" unicode="&#xf9;" horiz-adv-x="470" 
d="M235 -10q-60 0 -105.5 31t-65.5 80q-8 19 -11 41t-3 43v235q0 21 14.5 35.5t35.5 14.5t35.5 -14.5t14.5 -35.5v-250q0 -39 23.5 -62t61.5 -23t61.5 23t23.5 62v250q0 21 14.5 35.5t35.5 14.5t35.5 -14.5t14.5 -35.5v-235q0 -21 -3 -43t-11 -41q-20 -49 -65.5 -80
t-105.5 -31zM234 512q-23 0 -37 17l-64 77q-12 15 -12 32q0 19 14.5 32.5t33.5 13.5q23 0 37 -17l64 -76q11 -13 11 -32q0 -20 -14.5 -33.5t-32.5 -13.5z" />
    <glyph glyph-name="uacute" unicode="&#xfa;" horiz-adv-x="470" 
d="M235 -10q-60 0 -105.5 31t-65.5 80q-8 19 -11 41t-3 43v235q0 21 14.5 35.5t35.5 14.5t35.5 -14.5t14.5 -35.5v-250q0 -39 23.5 -62t61.5 -23t61.5 23t23.5 62v250q0 21 14.5 35.5t35.5 14.5t35.5 -14.5t14.5 -35.5v-235q0 -21 -3 -43t-11 -41q-20 -49 -65.5 -80
t-105.5 -31zM249 512q-18 0 -32.5 13.5t-14.5 33.5q0 19 11 32l64 76q14 17 37 17q19 0 33.5 -13.5t14.5 -32.5q0 -17 -12 -32l-64 -77q-14 -17 -37 -17z" />
    <glyph glyph-name="ucircumflex" unicode="&#xfb;" horiz-adv-x="470" 
d="M235 -10q-60 0 -105.5 31t-65.5 80q-8 19 -11 41t-3 43v235q0 21 14.5 35.5t35.5 14.5t35.5 -14.5t14.5 -35.5v-250q0 -39 23.5 -62t61.5 -23t61.5 23t23.5 62v250q0 21 14.5 35.5t35.5 14.5t35.5 -14.5t14.5 -35.5v-235q0 -21 -3 -43t-11 -41q-20 -49 -65.5 -80
t-105.5 -31zM145 506q-17 0 -29 12.5t-12 30.5q0 8 3 16t8 13l82 86q7 7 16.5 12.5t21.5 5.5q22 0 38 -18l82 -86q5 -5 8 -13t3 -16q0 -18 -12 -30.5t-29 -12.5q-11 0 -19 4.5t-16 11.5l-54 50l-56 -50q-8 -7 -16 -11.5t-19 -4.5z" />
    <glyph glyph-name="udieresis" unicode="&#xfc;" horiz-adv-x="470" 
d="M235 -10q-60 0 -105.5 31t-65.5 80q-8 19 -11 41t-3 43v235q0 21 14.5 35.5t35.5 14.5t35.5 -14.5t14.5 -35.5v-250q0 -39 23.5 -62t61.5 -23t61.5 23t23.5 62v250q0 21 14.5 35.5t35.5 14.5t35.5 -14.5t14.5 -35.5v-235q0 -21 -3 -43t-11 -41q-20 -49 -65.5 -80
t-105.5 -31zM325 530q-26 0 -43 17t-17 43t17 43t43 17t43 -17t17 -43t-17 -43t-43 -17zM145 530q-26 0 -43 17t-17 43t17 43t43 17t43 -17t17 -43t-17 -43t-43 -17z" />
    <glyph glyph-name="yacute" unicode="&#xfd;" horiz-adv-x="470" 
d="M230 -240q-46 0 -79 15.5t-50 30.5q-17 14 -17 39q0 18 13.5 32t33.5 14t35 -13q10 -8 25.5 -15.5t38.5 -7.5q38 0 64 22.5t26 66.5v106h-10q-7 -25 -34 -42.5t-76 -17.5q-39 0 -67 12.5t-46.5 33.5t-27.5 48t-9 56v280q0 21 14.5 35.5t35.5 14.5t35.5 -14.5t14.5 -35.5
v-265q0 -70 80 -70q36 0 58.5 12t31.5 26v297q0 21 14.5 35.5t35.5 14.5t35.5 -14.5t14.5 -35.5v-461q0 -21 -3 -43t-11 -41q-23 -55 -69.5 -85t-106.5 -30zM249 512q-18 0 -32.5 13.5t-14.5 33.5q0 19 11 32l64 76q14 17 37 17q19 0 33.5 -13.5t14.5 -32.5q0 -17 -12 -32
l-64 -77q-14 -17 -37 -17z" />
    <glyph glyph-name="thorn" unicode="&#xfe;" horiz-adv-x="460" 
d="M100 -240q-21 0 -35.5 14.5t-14.5 35.5v850q0 21 14.5 35.5t35.5 14.5t35.5 -14.5t14.5 -35.5v-250h10q7 25 34 42.5t76 17.5q39 0 67 -13.5t46.5 -35.5t27.5 -50t9 -56v-155q0 -29 -9 -59t-28.5 -54.5t-49.5 -40.5t-72 -16t-68 12.5t-33 37.5h-10v-230
q0 -21 -14.5 -35.5t-35.5 -14.5zM226 85q51 0 72.5 21t21.5 59v135q0 35 -19 55t-61 20q-36 0 -58.5 -12t-31.5 -26v-222q12 -12 29 -21t47 -9z" />
    <glyph glyph-name="ydieresis" unicode="&#xff;" horiz-adv-x="470" 
d="M230 -240q-46 0 -79 15.5t-50 30.5q-17 14 -17 39q0 18 13.5 32t33.5 14t35 -13q10 -8 25.5 -15.5t38.5 -7.5q38 0 64 22.5t26 66.5v106h-10q-7 -25 -34 -42.5t-76 -17.5q-39 0 -67 12.5t-46.5 33.5t-27.5 48t-9 56v280q0 21 14.5 35.5t35.5 14.5t35.5 -14.5t14.5 -35.5
v-265q0 -70 80 -70q36 0 58.5 12t31.5 26v297q0 21 14.5 35.5t35.5 14.5t35.5 -14.5t14.5 -35.5v-461q0 -21 -3 -43t-11 -41q-23 -55 -69.5 -85t-106.5 -30zM325 530q-26 0 -43 17t-17 43t17 43t43 17t43 -17t17 -43t-17 -43t-43 -17zM145 530q-26 0 -43 17t-17 43t17 43
t43 17t43 -17t17 -43t-17 -43t-43 -17z" />
    <glyph glyph-name="dotlessi" unicode="&#x131;" horiz-adv-x="220" 
d="M110 -10q-21 0 -35.5 14.5t-14.5 35.5v380q0 21 14.5 35.5t35.5 14.5t35.5 -14.5t14.5 -35.5v-380q0 -21 -14.5 -35.5t-35.5 -14.5z" />
    <glyph glyph-name="OE" unicode="&#x152;" horiz-adv-x="750" 
d="M295 0q-81 0 -142.5 40.5t-91.5 108.5q-11 25 -16 56t-5 65v160q0 34 5 65t16 56q30 68 91 108.5t143 40.5h364q21 0 35.5 -14.5t14.5 -35.5t-14.5 -35.5t-35.5 -14.5h-199v-195h159q21 0 35.5 -14.5t14.5 -35.5t-14.5 -35.5t-35.5 -14.5h-159v-205h209q21 0 35.5 -14.5
t14.5 -35.5t-14.5 -35.5t-35.5 -14.5h-374zM355 100v500h-60q-48 0 -83.5 -23.5t-51.5 -55.5q-8 -17 -11.5 -39.5t-3.5 -46.5v-170q0 -24 3.5 -46.5t11.5 -39.5q16 -32 51.5 -55.5t83.5 -23.5h60z" />
    <glyph glyph-name="oe" unicode="&#x153;" horiz-adv-x="705" 
d="M225 -10q-60 0 -105.5 31t-65.5 80q-8 19 -11 41t-3 43v90q0 21 3 43t11 41q20 49 65.5 80t105.5 31q46 0 80.5 -19t48.5 -46h10q11 24 44.5 44.5t82.5 20.5q57 0 99 -31t62 -80q8 -19 10.5 -41t2.5 -43v-44q0 -20 -14 -33.5t-34 -13.5h-207v-14q0 -39 26 -62t69 -23
q19 0 34 5.5t25 13.5t17 10.5t18 2.5q20 0 33.5 -14t13.5 -32q0 -24 -17 -39q-16 -14 -47 -28t-77 -14q-54 0 -89.5 19.5t-50.5 45.5h-10q-14 -22 -48 -43.5t-82 -21.5zM565 279v14q0 39 -20 60.5t-58 21.5t-57.5 -21.5t-19.5 -60.5v-14h155zM225 85q38 0 61.5 23t23.5 62
v120q0 39 -23.5 62t-61.5 23t-61.5 -23t-23.5 -62v-120q0 -39 23.5 -62t61.5 -23z" />
    <glyph glyph-name="Scaron" unicode="&#x160;" horiz-adv-x="470" 
d="M215 -10q-55 0 -95 15t-69 41q-20 18 -20 43q0 22 15 36t37 14q19 0 33 -11q11 -9 35.5 -23.5t63.5 -14.5q24 0 45.5 6t38 18.5t26.5 31t10 43.5q0 23 -8.5 40t-22 29t-29 19.5t-28.5 11.5q-44 13 -82.5 31t-67.5 44.5t-45.5 63t-16.5 87.5q0 39 15.5 74.5t43.5 62
t66.5 42.5t84.5 16q49 0 90 -16t62 -39q8 -9 14 -19.5t6 -22.5q0 -22 -16 -37t-38 -15q-19 0 -33 11q-13 11 -33 24.5t-59 13.5q-47 0 -74.5 -27t-27.5 -68q0 -46 24 -68t61 -34q43 -14 82.5 -31.5t70 -43.5t48.5 -62.5t18 -86.5q0 -44 -18.5 -80.5t-50 -63t-72 -41
t-84.5 -14.5zM245 738q-12 0 -21.5 5.5t-16.5 12.5l-82 86q-11 11 -11 29t12 30.5t29 12.5q11 0 19 -4.5t16 -11.5l56 -50l54 50q7 7 15.5 11.5t19.5 4.5q17 0 29 -12.5t12 -30.5t-11 -29l-82 -86q-16 -18 -38 -18z" />
    <glyph glyph-name="scaron" unicode="&#x161;" horiz-adv-x="365" 
d="M173 -10q-46 0 -74 13t-45 28q-17 14 -17 39q0 18 13.5 32t33.5 14q11 0 18 -2.5t17 -10.5t21.5 -13t32.5 -5q28 0 44 12.5t16 32.5q0 13 -9 24.5t-29 16.5q-31 9 -60 21t-51.5 31t-36 46t-13.5 65q0 30 11.5 55t32 43t48.5 28t62 10q39 0 67.5 -13t42.5 -26
q8 -8 12.5 -18t4.5 -21q0 -18 -13.5 -32t-33.5 -14q-11 0 -18 2.5t-17 10.5q-19 16 -45 16q-29 0 -43.5 -11t-14.5 -30q0 -17 8.5 -28t30.5 -17q36 -11 66 -23.5t51.5 -31t34 -44.5t12.5 -64q0 -29 -12 -53.5t-33 -43t-50.5 -29t-64.5 -10.5zM190 506q-12 0 -21.5 5.5
t-16.5 12.5l-82 86q-11 11 -11 29t12 30.5t29 12.5q11 0 19 -4.5t16 -11.5l56 -50l54 50q7 7 15.5 11.5t19.5 4.5q17 0 29 -12.5t12 -30.5t-11 -29l-82 -86q-16 -18 -38 -18z" />
    <glyph glyph-name="Ydieresis" unicode="&#x178;" 
d="M305 -10q-22 0 -37 15.5t-15 37.5v192q-63 12 -110 49.5t-72 94.5q-11 25 -16 56t-5 65v157q0 22 15 37.5t37 15.5t37.5 -15.5t15.5 -37.5v-162q0 -24 3.5 -46.5t11.5 -39.5q16 -32 51.5 -55.5t83.5 -23.5t83.5 23.5t51.5 55.5q8 17 11.5 39.5t3.5 46.5v162
q0 22 15.5 37.5t37.5 15.5t37 -15.5t15 -37.5v-157q0 -34 -5 -65t-16 -56q-25 -57 -71.5 -94.5t-109.5 -49.5v-192q0 -22 -15.5 -37.5t-37.5 -15.5zM393 743q-26 0 -43 17t-17 43t17 43t43 17t43 -17t17 -43t-17 -43t-43 -17zM213 743q-26 0 -43 17t-17 43t17 43t43 17
t43 -17t17 -43t-17 -43t-43 -17z" />
    <glyph glyph-name="Zcaron" unicode="&#x17d;" horiz-adv-x="575" 
d="M67 0q-20 0 -33.5 13.5t-13.5 33.5q0 14 6.5 25t14.5 23l338 505h-289q-21 0 -35.5 14.5t-14.5 35.5t14.5 35.5t35.5 14.5h384q20 0 35 -14t15 -34q0 -14 -4 -24.5t-12 -22.5l-338 -505h324q21 0 35.5 -14.5t14.5 -35.5t-14.5 -35.5t-35.5 -14.5h-427zM285 738
q-12 0 -21.5 5.5t-16.5 12.5l-82 86q-11 11 -11 29t12 30.5t29 12.5q11 0 19 -4.5t16 -11.5l56 -50l54 50q7 7 15.5 11.5t19.5 4.5q17 0 29 -12.5t12 -30.5t-11 -29l-82 -86q-16 -18 -38 -18z" />
    <glyph glyph-name="zcaron" unicode="&#x17e;" horiz-adv-x="405" 
d="M67 0q-20 0 -33.5 13.5t-13.5 33.5q0 14 6.5 25.5t14.5 22.5l189 270h-153q-20 0 -33.5 13.5t-13.5 33.5t13.5 34t33.5 14h240q20 0 35 -14t15 -34q0 -25 -16 -47l-189 -270h170q20 0 34 -14t14 -34t-14 -33.5t-34 -13.5h-265zM209 506q-12 0 -21.5 5.5t-16.5 12.5
l-82 86q-11 11 -11 29t12 30.5t29 12.5q11 0 19 -4.5t16 -11.5l56 -50l54 50q7 7 15.5 11.5t19.5 4.5q17 0 29 -12.5t12 -30.5t-11 -29l-82 -86q-16 -18 -38 -18z" />
    <glyph glyph-name="florin" unicode="&#x192;" horiz-adv-x="500" 
d="M98 -240q-26 0 -38 14t-12 34t15 33.5t36 13.5q20 0 37.5 17.5t20.5 52.5l28 320h-110q-20 0 -33.5 13.5t-13.5 33.5t13.5 34t33.5 14h118l18 210q3 34 16.5 63.5t35.5 51t52 33.5t66 12q26 0 38 -14t12 -34t-15 -33.5t-36 -13.5q-28 0 -47.5 -22.5t-22.5 -57.5l-17 -195
h114q20 0 34 -14t14 -34t-14 -33.5t-34 -13.5h-122l-30 -335q-3 -29 -13.5 -56t-30 -48t-47.5 -33.5t-66 -12.5z" />
    <glyph glyph-name="circumflex" unicode="&#x2c6;" horiz-adv-x="450" 
d="M134 506q-17 0 -29 12.5t-12 30.5q0 8 3 16t8 13l82 86q7 7 16.5 12.5t21.5 5.5q22 0 38 -18l82 -86q5 -5 8 -13t3 -16q0 -18 -12 -30.5t-29 -12.5q-11 0 -19 4.5t-16 11.5l-54 50l-56 -50q-8 -7 -16 -11.5t-19 -4.5z" />
    <glyph glyph-name="caron" unicode="&#x2c7;" horiz-adv-x="405" 
d="M209 506q-12 0 -21.5 5.5t-16.5 12.5l-82 86q-11 11 -11 29t12 30.5t29 12.5q11 0 19 -4.5t16 -11.5l56 -50l54 50q7 7 15.5 11.5t19.5 4.5q17 0 29 -12.5t12 -30.5t-11 -29l-82 -86q-16 -18 -38 -18z" />
    <glyph glyph-name="ring" unicode="&#x2da;" horiz-adv-x="420" 
d="M210 518q-40 0 -68 28t-28 68t28 68t68 28t68 -28t28 -68t-28 -68t-68 -28zM210 568q19 0 32.5 13.5t13.5 32.5t-13.5 32.5t-32.5 13.5t-32.5 -13.5t-13.5 -32.5t13.5 -32.5t32.5 -13.5z" />
    <glyph glyph-name="tilde" unicode="&#x2dc;" horiz-adv-x="450" 
d="M290 509q-26 0 -44.5 6.5t-33 15t-26 15t-23.5 6.5q-7 0 -12 -3.5t-11 -8.5q-13 -10 -31 -10q-20 0 -33 12.5t-13 32.5q0 27 28.5 48t73.5 21q25 0 44 -6.5t33.5 -15t26 -15t22.5 -6.5q8 0 13.5 3.5t11.5 8.5q12 10 29 10q20 0 33.5 -12.5t13.5 -32.5q0 -26 -27.5 -47.5
t-74.5 -21.5z" />
    <glyph glyph-name="endash" unicode="&#x2013;" horiz-adv-x="418" 
d="M50 209q-20 0 -33.5 13.5t-13.5 33.5t13.5 34t33.5 14h310q20 0 34 -14t14 -34t-14 -33.5t-34 -13.5h-310z" />
    <glyph glyph-name="emdash" unicode="&#x2014;" horiz-adv-x="698" 
d="M50 209q-20 0 -33.5 13.5t-13.5 33.5t13.5 34t33.5 14h590q20 0 34 -14t14 -34t-14 -33.5t-34 -13.5h-590z" />
    <glyph glyph-name="quoteleft" unicode="&#x2018;" horiz-adv-x="180" 
d="M123 491q-13 0 -24.5 7t-18.5 18l-69 116q-9 14 -9 28q0 22 16.5 36t39.5 14q13 0 24.5 -8t18.5 -20l65 -116q7 -12 7 -27q0 -21 -15 -34.5t-35 -13.5z" />
    <glyph glyph-name="quoteright" unicode="&#x2019;" horiz-adv-x="180" 
d="M53 491q-20 0 -35 13.5t-15 34.5q0 15 7 27l65 116q7 12 18.5 20t24.5 8q23 0 39.5 -14t16.5 -36q0 -14 -9 -28l-69 -116q-7 -12 -18.5 -18.5t-24.5 -6.5z" />
    <glyph glyph-name="quotesinglbase" unicode="&#x201a;" horiz-adv-x="180" 
d="M53 -10q-20 0 -35 13.5t-15 34.5q0 15 7 27l65 116q7 12 18.5 20t24.5 8q23 0 39.5 -14t16.5 -36q0 -14 -9 -28l-69 -116q-7 -12 -18.5 -18.5t-24.5 -6.5z" />
    <glyph glyph-name="quotedblleft" unicode="&#x201c;" horiz-adv-x="345" 
d="M291 491q-13 0 -24.5 7t-18.5 18l-69 116q-9 14 -9 28q0 22 16.5 36t39.5 14q13 0 24.5 -8t18.5 -20l65 -116q7 -12 7 -27q0 -21 -15 -34.5t-35 -13.5zM127 491q-13 0 -24.5 7t-18.5 18l-69 116q-9 14 -9 28q0 22 16.5 36t39.5 14q13 0 24.5 -8t18.5 -20l65 -116
q7 -12 7 -27q0 -21 -15 -34.5t-35 -13.5z" />
    <glyph glyph-name="quotedblright" unicode="&#x201d;" horiz-adv-x="345" 
d="M217 491q-20 0 -35 13.5t-15 34.5q0 15 7 27l65 116q7 12 18.5 20t24.5 8q23 0 39.5 -14t16.5 -36q0 -14 -9 -28l-69 -116q-7 -12 -18.5 -18.5t-24.5 -6.5zM53 491q-20 0 -35 13.5t-15 34.5q0 15 7 27l65 116q7 12 18.5 20t24.5 8q23 0 39.5 -14t16.5 -36q0 -14 -9 -28
l-69 -116q-7 -12 -18.5 -18.5t-24.5 -6.5z" />
    <glyph glyph-name="quotedblbase" unicode="&#x201e;" horiz-adv-x="345" 
d="M217 -10q-20 0 -35 13.5t-15 34.5q0 15 7 27l65 116q7 12 18.5 20t24.5 8q23 0 39.5 -14t16.5 -36q0 -14 -9 -28l-69 -116q-7 -12 -18.5 -18.5t-24.5 -6.5zM53 -10q-20 0 -35 13.5t-15 34.5q0 15 7 27l65 116q7 12 18.5 20t24.5 8q23 0 39.5 -14t16.5 -36q0 -14 -9 -28
l-69 -116q-7 -12 -18.5 -18.5t-24.5 -6.5z" />
    <glyph glyph-name="dagger" unicode="&#x2020;" horiz-adv-x="420" 
d="M209 -240q-22 0 -36 14.5t-14 36.5v455h-92q-22 0 -36 14t-14 36t14 36.5t36 14.5h92v121q0 22 14 36t36 14t36.5 -14t14.5 -36v-121h92q22 0 36.5 -14.5t14.5 -36.5t-14.5 -36t-36.5 -14h-92v-455q0 -22 -14.5 -36.5t-36.5 -14.5z" />
    <glyph glyph-name="daggerdbl" unicode="&#x2021;" horiz-adv-x="420" 
d="M209 -240q-22 0 -36 14.5t-14 36.5v119h-92q-22 0 -36 14t-14 36t14 36.5t36 14.5h92v235h-92q-22 0 -36 14t-14 36t14 36.5t36 14.5h92v121q0 22 14 36t36 14t36.5 -14t14.5 -36v-121h92q22 0 36.5 -14.5t14.5 -36.5t-14.5 -36t-36.5 -14h-92v-235h92q22 0 36.5 -14.5
t14.5 -36.5t-14.5 -36t-36.5 -14h-92v-119q0 -22 -14.5 -36.5t-36.5 -14.5z" />
    <glyph glyph-name="bullet" unicode="&#x2022;" horiz-adv-x="338" 
d="M169 79q-42 0 -74 21.5t-46 56.5q-5 13 -7 28.5t-2 30.5v48q0 15 2 30.5t7 28.5q14 35 46 56.5t74 21.5t74 -21.5t46 -56.5q5 -13 7 -28.5t2 -30.5v-48q0 -15 -2 -30.5t-7 -28.5q-14 -35 -46 -56.5t-74 -21.5z" />
    <glyph glyph-name="ellipsis" unicode="&#x2026;" horiz-adv-x="780" 
d="M650 -10q-26 0 -43 17t-17 43t17 43t43 17t43 -17t17 -43t-17 -43t-43 -17zM390 -10q-26 0 -43 17t-17 43t17 43t43 17t43 -17t17 -43t-17 -43t-43 -17zM130 -10q-26 0 -43 17t-17 43t17 43t43 17t43 -17t17 -43t-17 -43t-43 -17z" />
    <glyph glyph-name="perthousand" unicode="&#x2030;" horiz-adv-x="1070" 
d="M248 -10q-20 0 -35 12.5t-15 35.5q0 11 3 19l216 593h-155v-10q6 -2 14 -8t15.5 -17t12.5 -26t5 -35v-62q0 -17 -2 -34.5t-9 -32.5q-17 -39 -53 -64t-84 -25t-84 25t-53 64q-7 15 -9 32.5t-2 34.5v62q0 17 2 34.5t9 32.5q17 39 53 64t84 25h313q20 0 35 -12.5t15 -35.5
q0 -12 -3 -19l-226 -620q-6 -16 -19 -24.5t-28 -8.5zM907 -10q-48 0 -84 25t-53 64q-7 15 -9 32.5t-2 34.5v62q0 17 2 34.5t9 32.5q17 39 53 64t84 25t84 -25t53 -64q7 -15 9 -32.5t2 -34.5v-62q0 -17 -2 -34.5t-9 -32.5q-17 -39 -53 -64t-84 -25zM561 -10q-48 0 -84 25
t-53 64q-7 15 -9 32.5t-2 34.5v62q0 17 2 34.5t9 32.5q17 39 53 64t84 25t84 -25t53 -64q7 -15 9 -32.5t2 -34.5v-62q0 -17 -2 -34.5t-9 -32.5q-17 -39 -53 -64t-84 -25zM161 424q27 0 44 16t17 45v76q0 29 -17 45t-44 16t-44 -16t-17 -45v-76q0 -29 17 -45t44 -16zM907 78
q27 0 44 16t17 45v76q0 29 -17 45t-44 16t-44 -16t-17 -45v-76q0 -29 17 -45t44 -16zM561 78q27 0 44 16t17 45v76q0 29 -17 45t-44 16t-44 -16t-17 -45v-76q0 -29 17 -45t44 -16z" />
    <glyph glyph-name="guilsinglleft" unicode="&#x2039;" horiz-adv-x="223" 
d="M143 51q-27 0 -43 25l-69 116q-5 8 -8 15t-3 16t3 16t6 13l65 116q7 12 18.5 20t24.5 8q23 0 39.5 -14t16.5 -36q0 -14 -9 -28l-54 -92l56 -100q7 -12 7 -27q0 -21 -15 -34.5t-35 -13.5z" />
    <glyph glyph-name="guilsinglright" unicode="&#x203a;" horiz-adv-x="223" 
d="M80 51q-20 0 -35 13.5t-15 34.5q0 15 7 27l56 100l-54 92q-9 14 -9 28q0 22 16.5 36t39.5 14q13 0 24.5 -8t18.5 -20l65 -116q3 -6 6 -13t3 -16t-3 -16t-8 -15l-69 -116q-16 -25 -43 -25z" />
    <glyph glyph-name="Euro" unicode="&#x20ac;" horiz-adv-x="480" 
d="M315 -10q-64 0 -107.5 31t-63.5 80q-8 18 -11 39.5t-3 41.5h-70q-22 0 -36 14t-14 36t14 36.5t36 14.5h70q1 20 4 39.5t10 36.5q20 49 65.5 80t105.5 31q46 0 76.5 -15t42.5 -26q17 -14 17 -39q0 -18 -13.5 -32t-33.5 -14q-11 0 -18 2.5t-17 10.5t-22.5 13t-31.5 5
q-38 0 -61.5 -23t-23.5 -62v-7h105q22 0 36.5 -14.5t14.5 -36.5t-14.5 -36t-36.5 -14h-105v-12q0 -39 23.5 -62t61.5 -23q19 0 31.5 5t22.5 13t17 10.5t18 2.5q20 0 33.5 -14t13.5 -32q0 -24 -17 -39q-16 -14 -44.5 -27.5t-74.5 -13.5z" />
    <glyph glyph-name="trademark" unicode="&#x2122;" horiz-adv-x="672" 
d="M169 338q-14 0 -23.5 9.5t-9.5 23.5v266h-94q-14 0 -23 8.5t-9 22.5q0 13 9 22.5t23 9.5h290q18 0 26.5 -9t13.5 -21l73 -196q4 -9 6 -19.5t2 -17.5h7q0 7 2 17.5t6 19.5l78 197q5 13 15 21t23 8q19 0 28.5 -10.5t9.5 -25.5v-293q0 -14 -9.5 -23.5t-23.5 -9.5
q-13 0 -22.5 9.5t-9.5 23.5v124q0 10 2.5 19t4.5 14h-10q0 -3 -2.5 -11.5t-5.5 -16.5l-58 -142q-4 -9 -12.5 -14.5t-17.5 -5.5q-22 0 -30 20l-56 142q-3 8 -5 16.5t-2 11.5h-10q2 -3 4.5 -13t2.5 -20v-124q0 -14 -10 -23.5t-23 -9.5q-14 0 -23.5 9.5t-9.5 23.5v266h-95v-266
q0 -14 -9.5 -23.5t-22.5 -9.5z" />
    <glyph glyph-name="glyph223" horiz-adv-x="0" 
 />
    </font>
</defs>
</svg>
